<svg width="278" height="97" viewBox="0 0 278 97" fill="none" xmlns="http://www.w3.org/2000/svg">
<g filter="url(#filter0_d_120_286)">
<rect opacity="0.9" x="15" y="11" width="248" height="67" rx="15" fill="url(#paint0_linear_120_286)"/>
<path d="M99.544 35.864H101.48C102.813 35.864 103.821 35.4533 104.504 34.632C105.187 33.8 105.528 32.7653 105.528 31.528C105.528 30.3547 105.144 29.368 104.376 28.568C103.619 27.768 102.632 27.368 101.416 27.368H99.544V35.864ZM98.232 26.216H101.432C103.021 26.216 104.323 26.712 105.336 27.704C106.36 28.6853 106.872 29.96 106.872 31.528C106.872 33.0853 106.397 34.3867 105.448 35.432C104.509 36.4773 103.192 37 101.496 37H98.232V26.216ZM112.042 37.144C110.879 37.144 109.957 36.7547 109.274 35.976C108.602 35.1867 108.266 34.1947 108.266 33C108.266 31.7947 108.613 30.792 109.306 29.992C110.01 29.1813 110.922 28.776 112.042 28.776C113.269 28.776 114.213 29.1707 114.874 29.96C115.546 30.7493 115.882 31.752 115.882 32.968C115.882 34.1733 115.541 35.1707 114.858 35.96C114.175 36.7493 113.237 37.144 112.042 37.144ZM112.042 29.896C111.274 29.896 110.671 30.1947 110.234 30.792C109.797 31.3893 109.578 32.12 109.578 32.984C109.578 33.8267 109.802 34.5467 110.25 35.144C110.698 35.7307 111.295 36.024 112.042 36.024C112.853 36.024 113.477 35.736 113.914 35.16C114.351 34.5733 114.57 33.848 114.57 32.984C114.57 32.088 114.362 31.352 113.946 30.776C113.53 30.1893 112.895 29.896 112.042 29.896ZM119.459 37L116.963 28.888H118.307L119.091 31.576C119.368 32.5147 119.597 33.336 119.779 34.04C119.971 34.7333 120.093 35.1973 120.147 35.432L120.227 35.768C120.387 35.0853 120.776 33.6827 121.395 31.56L122.163 28.888H123.507L124.291 31.56L125.491 35.784C125.64 35.1547 126.051 33.7467 126.723 31.56L127.539 28.888H128.835L126.275 37H124.723L123.955 34.344L122.835 30.296C122.675 30.9787 122.312 32.328 121.747 34.344L121.011 37H119.459ZM131.65 28.888V30.296C132.13 29.2827 132.984 28.776 134.21 28.776C135 28.776 135.629 29.016 136.098 29.496C136.568 29.976 136.802 30.616 136.802 31.416V37H135.538V31.752C135.538 31.1547 135.384 30.7013 135.074 30.392C134.776 30.072 134.381 29.912 133.89 29.912C133.282 29.912 132.754 30.1467 132.306 30.616C131.869 31.0853 131.65 31.736 131.65 32.568V37H130.402V28.888H131.65ZM139.107 37V25.688H140.371V37H139.107ZM146.073 37.144C144.911 37.144 143.988 36.7547 143.305 35.976C142.633 35.1867 142.297 34.1947 142.297 33C142.297 31.7947 142.644 30.792 143.337 29.992C144.041 29.1813 144.953 28.776 146.073 28.776C147.3 28.776 148.244 29.1707 148.905 29.96C149.577 30.7493 149.913 31.752 149.913 32.968C149.913 34.1733 149.572 35.1707 148.889 35.96C148.207 36.7493 147.268 37.144 146.073 37.144ZM146.073 29.896C145.305 29.896 144.703 30.1947 144.265 30.792C143.828 31.3893 143.609 32.12 143.609 32.984C143.609 33.8267 143.833 34.5467 144.281 35.144C144.729 35.7307 145.327 36.024 146.073 36.024C146.884 36.024 147.508 35.736 147.945 35.16C148.383 34.5733 148.601 33.848 148.601 32.984C148.601 32.088 148.393 31.352 147.977 30.776C147.561 30.1893 146.927 29.896 146.073 29.896ZM156.13 33.256H154.722C154.039 33.256 153.527 33.3893 153.186 33.656C152.844 33.9227 152.674 34.2587 152.674 34.664C152.674 35.0693 152.807 35.4 153.074 35.656C153.34 35.9013 153.73 36.024 154.242 36.024C154.818 36.024 155.276 35.864 155.618 35.544C155.959 35.2133 156.13 34.7973 156.13 34.296V33.256ZM151.938 30.584V29.32C152.546 28.9467 153.346 28.76 154.338 28.76C156.375 28.76 157.394 29.7947 157.394 31.864V37H156.146V36.04C155.73 36.7333 154.972 37.08 153.874 37.08C153.116 37.08 152.503 36.856 152.034 36.408C151.575 35.96 151.346 35.3947 151.346 34.712C151.346 33.9333 151.639 33.3307 152.226 32.904C152.823 32.4667 153.634 32.248 154.658 32.248H156.13V31.832C156.13 31.192 155.986 30.712 155.698 30.392C155.41 30.0613 154.924 29.896 154.242 29.896C153.378 29.896 152.61 30.1253 151.938 30.584ZM162.725 35.976C163.386 35.976 163.946 35.7307 164.405 35.24C164.874 34.7493 165.109 33.9653 165.109 32.888C165.109 31.864 164.869 31.112 164.389 30.632C163.909 30.152 163.381 29.912 162.805 29.912C162.133 29.912 161.573 30.184 161.125 30.728C160.687 31.2613 160.469 32.0293 160.469 33.032C160.469 33.9067 160.682 34.616 161.109 35.16C161.535 35.704 162.074 35.976 162.725 35.976ZM165.109 25.688H166.373V37H165.109V35.8C164.533 36.6853 163.701 37.128 162.613 37.128C161.535 37.128 160.687 36.728 160.069 35.928C159.461 35.128 159.157 34.1573 159.157 33.016C159.157 31.7467 159.482 30.7227 160.133 29.944C160.783 29.1547 161.621 28.76 162.645 28.76C163.701 28.76 164.522 29.2133 165.109 30.12V25.688ZM175.917 37.144C174.754 37.144 173.832 36.7547 173.149 35.976C172.477 35.1867 172.141 34.1947 172.141 33C172.141 31.7947 172.488 30.792 173.181 29.992C173.885 29.1813 174.797 28.776 175.917 28.776C177.144 28.776 178.088 29.1707 178.749 29.96C179.421 30.7493 179.757 31.752 179.757 32.968C179.757 34.1733 179.416 35.1707 178.733 35.96C178.05 36.7493 177.112 37.144 175.917 37.144ZM175.917 29.896C175.149 29.896 174.546 30.1947 174.109 30.792C173.672 31.3893 173.453 32.12 173.453 32.984C173.453 33.8267 173.677 34.5467 174.125 35.144C174.573 35.7307 175.17 36.024 175.917 36.024C176.728 36.024 177.352 35.736 177.789 35.16C178.226 34.5733 178.445 33.848 178.445 32.984C178.445 32.088 178.237 31.352 177.821 30.776C177.405 30.1893 176.77 29.896 175.917 29.896ZM182.854 28.888V30.296C183.334 29.2827 184.187 28.776 185.414 28.776C186.203 28.776 186.832 29.016 187.302 29.496C187.771 29.976 188.006 30.616 188.006 31.416V37H186.742V31.752C186.742 31.1547 186.587 30.7013 186.278 30.392C185.979 30.072 185.584 29.912 185.094 29.912C184.486 29.912 183.958 30.1467 183.51 30.616C183.072 31.0853 182.854 31.736 182.854 32.568V37H181.606V28.888H182.854ZM195.896 29.912V34.664C195.896 35.528 196.302 35.96 197.112 35.96C197.528 35.96 197.896 35.8373 198.216 35.592V36.792C197.864 36.984 197.47 37.08 197.032 37.08C195.432 37.08 194.632 36.264 194.632 34.632V29.912H193.336V28.888H194.632V26.872H195.896V28.888H198.136V29.912H195.896ZM201.307 25.688V30.296C201.787 29.2827 202.64 28.776 203.867 28.776C204.645 28.776 205.269 29.016 205.739 29.496C206.219 29.976 206.459 30.6267 206.459 31.448V37H205.195V31.752C205.195 31.1653 205.04 30.712 204.731 30.392C204.432 30.072 204.037 29.912 203.547 29.912C202.949 29.912 202.427 30.1413 201.979 30.6C201.531 31.0587 201.307 31.7147 201.307 32.568V37H200.059V25.688H201.307ZM213.867 32.424V32.104C213.867 31.432 213.686 30.8987 213.323 30.504C212.961 30.0987 212.459 29.896 211.819 29.896C211.211 29.896 210.694 30.1147 210.267 30.552C209.841 30.9893 209.59 31.6133 209.515 32.424H213.867ZM214.619 35.4V36.584C213.99 36.9147 213.222 37.08 212.315 37.08C211.089 37.08 210.097 36.7067 209.339 35.96C208.593 35.2027 208.219 34.2053 208.219 32.968C208.219 31.6773 208.555 30.6587 209.227 29.912C209.899 29.1653 210.763 28.792 211.819 28.792C212.833 28.792 213.638 29.1173 214.235 29.768C214.833 30.4187 215.131 31.3413 215.131 32.536C215.131 32.8773 215.105 33.192 215.051 33.48H209.515C209.611 34.28 209.915 34.8933 210.427 35.32C210.939 35.7467 211.611 35.96 212.443 35.96C213.35 35.96 214.075 35.7733 214.619 35.4Z" fill="#056000"/>
<path d="M103.748 53.832H109.068L108.816 52.992C108.181 50.976 107.659 49.2867 107.248 47.924C106.856 46.5427 106.613 45.6747 106.52 45.32L106.408 44.76C106.24 45.6933 105.437 48.4467 104 53.02L103.748 53.832ZM111.308 61L109.964 56.716H102.824L101.48 61H97.784L104.168 42.128H108.732L115.116 61H111.308ZM124.575 58.312C125.583 58.312 126.405 57.9293 127.039 57.164C127.674 56.38 127.991 55.288 127.991 53.888C127.991 52.488 127.674 51.4053 127.039 50.64C126.405 49.856 125.602 49.464 124.631 49.464C123.661 49.464 122.821 49.828 122.111 50.556C121.402 51.284 121.047 52.3667 121.047 53.804C121.047 55.2413 121.393 56.352 122.083 57.136C122.774 57.92 123.605 58.312 124.575 58.312ZM121.047 46.804V48.988C122.055 47.4013 123.502 46.608 125.387 46.608C127.235 46.608 128.701 47.2707 129.783 48.596C130.885 49.9213 131.435 51.6667 131.435 53.832C131.435 55.96 130.885 57.724 129.783 59.124C128.701 60.5053 127.226 61.196 125.359 61.196C123.455 61.196 122.018 60.4213 121.047 58.872V66.348H117.687V46.804H121.047ZM141.2 58.312C142.208 58.312 143.03 57.9293 143.664 57.164C144.299 56.38 144.616 55.288 144.616 53.888C144.616 52.488 144.299 51.4053 143.664 50.64C143.03 49.856 142.227 49.464 141.256 49.464C140.286 49.464 139.446 49.828 138.736 50.556C138.027 51.284 137.672 52.3667 137.672 53.804C137.672 55.2413 138.018 56.352 138.708 57.136C139.399 57.92 140.23 58.312 141.2 58.312ZM137.672 46.804V48.988C138.68 47.4013 140.127 46.608 142.012 46.608C143.86 46.608 145.326 47.2707 146.408 48.596C147.51 49.9213 148.06 51.6667 148.06 53.832C148.06 55.96 147.51 57.724 146.408 59.124C145.326 60.5053 143.851 61.196 141.984 61.196C140.08 61.196 138.643 60.4213 137.672 58.872V66.348H134.312V46.804H137.672ZM168.523 42.912V46.328C167.123 45.488 165.629 45.068 164.043 45.068C163.165 45.068 162.475 45.264 161.971 45.656C161.485 46.048 161.243 46.552 161.243 47.168C161.243 47.784 161.504 48.2973 162.027 48.708C162.568 49.1 163.371 49.5387 164.435 50.024C165.181 50.36 165.788 50.6587 166.255 50.92C166.721 51.1627 167.225 51.508 167.767 51.956C168.327 52.404 168.737 52.9453 168.999 53.58C169.279 54.196 169.419 54.9053 169.419 55.708C169.419 57.388 168.812 58.732 167.599 59.74C166.404 60.7293 164.827 61.224 162.867 61.224C160.739 61.224 158.975 60.8227 157.575 60.02V56.408C159.18 57.5653 160.935 58.144 162.839 58.144C163.697 58.144 164.388 57.9387 164.911 57.528C165.433 57.0987 165.695 56.5293 165.695 55.82C165.695 55.484 165.629 55.1853 165.499 54.924C165.368 54.6627 165.097 54.4013 164.687 54.14C164.295 53.8787 163.987 53.692 163.763 53.58C163.557 53.468 163.119 53.2627 162.447 52.964C162.26 52.8707 162.12 52.8053 162.027 52.768C161.336 52.4507 160.776 52.1707 160.347 51.928C159.917 51.6667 159.451 51.3213 158.947 50.892C158.443 50.4627 158.06 49.9493 157.799 49.352C157.556 48.7547 157.435 48.0733 157.435 47.308C157.435 45.7027 158.023 44.4147 159.199 43.444C160.393 42.4733 161.971 41.988 163.931 41.988C165.704 41.988 167.235 42.296 168.523 42.912ZM176.463 49.324V56.548C176.463 57.1453 176.621 57.6027 176.939 57.92C177.256 58.2187 177.695 58.368 178.255 58.368C178.964 58.368 179.617 58.172 180.215 57.78V60.664C179.561 60.9813 178.721 61.14 177.695 61.14C174.633 61.14 173.103 59.5907 173.103 56.492V49.324H170.975V46.804H173.103V43.388H176.463V46.804H179.991V49.324H176.463ZM189.06 61.224C186.913 61.224 185.233 60.552 184.02 59.208C182.825 57.864 182.228 56.1467 182.228 54.056C182.228 51.8907 182.853 50.108 184.104 48.708C185.355 47.2893 187.007 46.58 189.06 46.58C191.244 46.58 192.933 47.2707 194.128 48.652C195.323 50.0147 195.92 51.7507 195.92 53.86C195.92 56.0067 195.313 57.7707 194.1 59.152C192.905 60.5333 191.225 61.224 189.06 61.224ZM189.06 49.324C187.996 49.324 187.175 49.7627 186.596 50.64C186.036 51.5173 185.756 52.6187 185.756 53.944C185.756 55.2507 186.045 56.3427 186.624 57.22C187.203 58.0973 188.024 58.536 189.088 58.536C190.189 58.536 191.02 58.1067 191.58 57.248C192.14 56.3893 192.42 55.2973 192.42 53.972C192.42 52.6093 192.149 51.4987 191.608 50.64C191.067 49.7627 190.217 49.324 189.06 49.324ZM202.176 46.804V49.324C202.829 47.5693 204.024 46.692 205.76 46.692C206.152 46.692 206.469 46.72 206.712 46.776V50.024C206.283 49.8373 205.807 49.744 205.284 49.744C204.369 49.744 203.623 50.1173 203.044 50.864C202.465 51.6107 202.176 52.544 202.176 53.664V61H198.788L198.816 46.804H202.176ZM217.227 52.74V52.32C217.19 51.4053 216.938 50.6773 216.471 50.136C216.023 49.576 215.361 49.296 214.483 49.296C213.681 49.296 212.981 49.5947 212.383 50.192C211.805 50.7707 211.431 51.62 211.263 52.74H217.227ZM219.523 57.304V60.216C218.534 60.832 217.106 61.14 215.239 61.14C212.981 61.14 211.198 60.468 209.891 59.124C208.585 57.78 207.931 56.044 207.931 53.916C207.931 51.6573 208.547 49.884 209.779 48.596C211.011 47.308 212.551 46.664 214.399 46.664C216.247 46.664 217.713 47.224 218.795 48.344C219.878 49.464 220.419 51.0973 220.419 53.244C220.419 53.7667 220.354 54.4387 220.223 55.26H211.319C211.562 56.2867 212.066 57.0707 212.831 57.612C213.615 58.1533 214.586 58.424 215.743 58.424C217.237 58.424 218.497 58.0507 219.523 57.304Z" fill="#056000"/>
<g clip-path="url(#clip0_120_286)">
<path d="M67.6222 20C67.7385 20 67.8549 20 67.9778 20C68.2633 23.5261 66.9174 26.1608 65.2817 28.0688C63.6767 29.9636 61.4789 31.8013 57.9243 31.5224C57.6871 28.0468 59.0352 25.6075 60.6687 23.7039C62.1837 21.9299 64.9611 20.3513 67.6222 20Z" fill="url(#paint1_linear_120_286)"/>
<path d="M78.3827 56.7014C78.3827 56.7365 78.3827 56.7672 78.3827 56.8002C77.3837 59.8257 75.9588 62.4187 74.2199 64.825C72.6325 67.0096 70.6872 69.9495 67.2138 69.9495C64.2124 69.9495 62.2188 68.0196 59.1428 67.9669C55.8889 67.9142 54.0995 69.5806 51.1245 70C50.7842 70 50.4439 70 50.1102 70C47.9256 69.6838 46.1625 67.9537 44.8781 66.3949C41.0907 61.7885 38.164 55.8385 37.6195 48.2242C37.6195 47.4777 37.6195 46.7334 37.6195 45.9869C37.85 40.5375 40.4979 36.1068 44.0174 33.9595C45.8749 32.8178 48.4284 31.8452 51.2716 32.2799C52.4902 32.4687 53.7351 32.8859 54.8263 33.2986C55.8604 33.696 57.1536 34.4008 58.3787 34.3635C59.2087 34.3393 60.0342 33.9068 60.8707 33.6016C63.321 32.7168 65.723 31.7025 68.889 32.1789C72.6939 32.7541 75.3945 34.4447 77.0631 37.0531C73.8444 39.1016 71.2997 42.1886 71.7345 47.4602C72.1209 52.2487 74.9049 55.0503 78.3827 56.7014Z" fill="url(#paint2_linear_120_286)"/>
</g>
</g>
<defs>
<filter id="filter0_d_120_286" x="0" y="0" width="278" height="97" filterUnits="userSpaceOnUse" color-interpolation-filters="sRGB">
<feFlood flood-opacity="0" result="BackgroundImageFix"/>
<feColorMatrix in="SourceAlpha" type="matrix" values="0 0 0 0 0 0 0 0 0 0 0 0 0 0 0 0 0 0 127 0" result="hardAlpha"/>
<feOffset dy="4"/>
<feGaussianBlur stdDeviation="7.5"/>
<feComposite in2="hardAlpha" operator="out"/>
<feColorMatrix type="matrix" values="0 0 0 0 0 0 0 0 0 0 0 0 0 0 0 0 0 0 0.25 0"/>
<feBlend mode="normal" in2="BackgroundImageFix" result="effect1_dropShadow_120_286"/>
<feBlend mode="normal" in="SourceGraphic" in2="effect1_dropShadow_120_286" result="shape"/>
</filter>
<linearGradient id="paint0_linear_120_286" x1="15" y1="44.5" x2="263" y2="44.5" gradientUnits="userSpaceOnUse">
<stop stop-color="white"/>
<stop offset="1" stop-color="#999999"/>
</linearGradient>
<linearGradient id="paint1_linear_120_286" x1="62.9567" y1="20" x2="62.9567" y2="31.5506" gradientUnits="userSpaceOnUse">
<stop stop-color="#044F00"/>
<stop offset="0.9999" stop-color="#078E00"/>
</linearGradient>
<linearGradient id="paint2_linear_120_286" x1="58.0011" y1="32.057" x2="58.0011" y2="70" gradientUnits="userSpaceOnUse">
<stop stop-color="#044F00"/>
<stop offset="0.9999" stop-color="#078E00"/>
</linearGradient>
<clipPath id="clip0_120_286">
<rect width="50" height="50" fill="white" transform="translate(33 20)"/>
</clipPath>
</defs>
</svg>
