<svg width="20" height="22" viewBox="0 0 20 22" fill="none" xmlns="http://www.w3.org/2000/svg">
<g clip-path="url(#clip0_4001_438)">
<path d="M5.96509 5.202C5.77924 5.17478 5.58967 5.2122 5.42809 5.308H5.41409C5.03909 5.528 4.70109 5.805 4.41309 6.131C4.17309 6.408 4.04309 6.688 4.00909 6.958C3.98909 7.118 4.00309 7.28 4.05009 7.433L4.06809 7.443C4.33809 8.236 4.69009 8.999 5.12009 9.717C5.67479 10.7253 6.35707 11.658 7.15009 12.492L7.17409 12.526L7.21209 12.554L7.23509 12.581L7.26309 12.605C8.10007 13.4003 9.03492 14.0858 10.0451 14.645C11.2001 15.274 11.9011 15.571 12.3221 15.695V15.701C12.4451 15.739 12.5571 15.756 12.6701 15.756C13.0288 15.7303 13.3684 15.5844 13.6341 15.342C13.9591 15.054 14.2341 14.715 14.4481 14.338V14.331C14.6491 13.951 14.5811 13.593 14.2911 13.35C13.7091 12.8404 13.0791 12.3883 12.4101 12C11.9621 11.757 11.5071 11.904 11.3231 12.15L10.9301 12.646C10.7281 12.892 10.3621 12.858 10.3621 12.858L10.3521 12.864C7.62109 12.167 6.89209 9.402 6.89209 9.402C6.89209 9.402 6.85809 9.026 7.11109 8.834L7.60309 8.438C7.83909 8.246 8.00309 7.792 7.75009 7.344C7.36267 6.67543 6.91158 6.04584 6.40309 5.464C6.29187 5.32738 6.1361 5.23427 5.96309 5.201M10.5801 4C10.4475 4 10.3203 4.05268 10.2265 4.14645C10.1328 4.24021 10.0801 4.36739 10.0801 4.5C10.0801 4.63261 10.1328 4.75979 10.2265 4.85355C10.3203 4.94732 10.4475 5 10.5801 5C11.8441 5 12.8941 5.413 13.7251 6.205C14.1521 6.638 14.4851 7.151 14.7031 7.713C14.9221 8.276 15.0221 8.877 14.9961 9.479C14.9905 9.61161 15.0379 9.741 15.1277 9.8387C15.2175 9.93641 15.3425 9.99443 15.4751 10C15.6077 10.0056 15.7371 9.95823 15.8348 9.8684C15.9325 9.77857 15.9905 9.65361 15.9961 9.521C16.0259 8.78056 15.903 8.0419 15.6351 7.351C15.3659 6.65658 14.956 6.02536 14.4311 5.497L14.4211 5.487C13.3901 4.502 12.0861 4 10.5801 4Z" fill="white"/>
<path d="M10.5449 5.64358C10.4123 5.64358 10.2851 5.69626 10.1914 5.79002C10.0976 5.88379 10.0449 6.01097 10.0449 6.14358C10.0449 6.27619 10.0976 6.40336 10.1914 6.49713C10.2851 6.5909 10.4123 6.64358 10.5449 6.64358H10.5619C11.4739 6.70858 12.1379 7.01258 12.6029 7.51158C13.0799 8.02558 13.3269 8.66458 13.3079 9.45458C13.3049 9.58719 13.3546 9.71558 13.4462 9.8115C13.5378 9.90742 13.6638 9.96303 13.7964 9.96608C13.929 9.96913 14.0574 9.91937 14.1533 9.82776C14.2493 9.73615 14.3049 9.61019 14.3079 9.47758C14.3319 8.44058 13.9979 7.54558 13.3359 6.83158V6.82958C12.6589 6.10358 11.7299 5.71958 10.6119 5.64458L10.5949 5.64258L10.5449 5.64358Z" fill="white"/>
<path d="M10.5259 7.31932C10.459 7.31341 10.3915 7.32105 10.3277 7.34178C10.2638 7.36251 10.2047 7.3959 10.154 7.43996C10.1033 7.48401 10.062 7.53784 10.0325 7.59822C10.0031 7.65859 9.98611 7.72428 9.98261 7.79137C9.97912 7.85845 9.98917 7.92555 10.0122 7.98866C10.0352 8.05177 10.0707 8.10959 10.1165 8.15868C10.1624 8.20777 10.2177 8.24712 10.2791 8.27438C10.3405 8.30163 10.4067 8.31624 10.4739 8.31732C10.8919 8.33932 11.1589 8.46532 11.3269 8.63432C11.4959 8.80432 11.6219 9.07732 11.6449 9.50432C11.6461 9.57142 11.6609 9.63758 11.6882 9.69886C11.7156 9.76014 11.755 9.81529 11.8041 9.86101C11.8533 9.90674 11.9111 9.9421 11.9742 9.965C12.0372 9.98791 12.1043 9.99788 12.1713 9.99432C12.2383 9.99076 12.3039 9.97374 12.3642 9.94429C12.4245 9.91483 12.4783 9.87354 12.5223 9.82287C12.5663 9.7722 12.5997 9.71319 12.6204 9.64936C12.6411 9.58552 12.6487 9.51817 12.6429 9.45132C12.6109 8.85132 12.4229 8.32132 12.0379 7.93132C11.6509 7.54132 11.1239 7.35132 10.5259 7.31932Z" fill="white"/>
<path fill-rule="evenodd" clip-rule="evenodd" d="M5.06711 1.38406C8.24917 0.672762 11.549 0.672762 14.7311 1.38406L15.0701 1.45906C16.0001 1.66754 16.8541 2.12949 17.5376 2.7937C18.221 3.45792 18.7072 4.29843 18.9421 5.22206C19.7506 8.40485 19.7506 11.7393 18.9421 14.9221C18.7072 15.8457 18.221 16.6862 17.5376 17.3504C16.8541 18.0146 16.0001 18.4766 15.0701 18.6851L14.7301 18.7601C12.737 19.2051 10.6921 19.373 8.6531 19.2591L6.00011 21.6331C5.90009 21.7226 5.77786 21.7837 5.64619 21.8099C5.51452 21.8361 5.37823 21.8265 5.25155 21.782C5.12487 21.7376 5.01244 21.6599 4.92599 21.5572C4.83955 21.4545 4.78226 21.3305 4.76011 21.1981L4.32111 18.5761C3.47952 18.3137 2.71918 17.8401 2.1126 17.2004C1.50603 16.5608 1.07344 15.7764 0.856105 14.9221C0.0476394 11.7393 0.0476394 8.40485 0.856105 5.22206C1.09105 4.29843 1.57719 3.45792 2.26064 2.7937C2.9441 2.12949 3.79815 1.66754 4.72811 1.45906L5.06711 1.38406ZM14.4041 2.84706C11.4374 2.18386 8.36083 2.18386 5.39411 2.84706L5.05411 2.92306C4.39507 3.07124 3.78989 3.39892 3.30558 3.86981C2.82128 4.3407 2.47674 4.93644 2.31011 5.59106C1.5631 8.53169 1.5631 11.6124 2.31011 14.5531C2.47681 15.2078 2.82151 15.8036 3.306 16.2745C3.7905 16.7454 4.39588 17.073 5.05511 17.2211L5.14511 17.2411C5.2907 17.2736 5.42327 17.3489 5.52588 17.4572C5.62848 17.5655 5.69646 17.7019 5.72111 17.8491L6.01511 19.6071L7.88711 17.9321C7.96186 17.865 8.04933 17.8136 8.14433 17.7809C8.23932 17.7483 8.3399 17.7351 8.4401 17.7421C10.4392 17.8832 12.4481 17.7333 14.4041 17.2971L14.7431 17.2211C15.4023 17.073 16.0077 16.7454 16.4922 16.2745C16.9767 15.8036 17.3214 15.2078 17.4881 14.5531C18.2341 11.6131 18.2341 8.53206 17.4881 5.59106C17.3214 4.93631 16.9767 4.34049 16.4922 3.86959C16.0077 3.39868 15.4023 3.07108 14.7431 2.92306L14.4041 2.84706Z" fill="white"/>
</g>
<defs>
<clipPath id="clip0_4001_438">
<rect width="20" height="22" fill="white"/>
</clipPath>
</defs>
</svg>
