<svg width="20" height="16" viewBox="0 0 20 16" fill="none" xmlns="http://www.w3.org/2000/svg">
<path d="M0.769231 1V0.25C0.565218 0.25 0.369561 0.329018 0.225302 0.46967C0.0810436 0.610322 0 0.801088 0 1H0.769231ZM19.2308 1H20C20 0.801088 19.919 0.610322 19.7747 0.46967C19.6304 0.329018 19.4348 0.25 19.2308 0.25V1ZM0.769231 1.75H19.2308V0.25H0.769231V1.75ZM18.4615 1V13H20V1H18.4615ZM17.1795 14.25H2.82051V15.75H17.1795V14.25ZM1.53846 13V1H0V13H1.53846ZM2.82051 14.25C2.11282 14.25 1.53846 13.69 1.53846 13H0C0 13.7293 0.29716 14.4288 0.826109 14.9445C1.35506 15.4603 2.07247 15.75 2.82051 15.75V14.25ZM18.4615 13C18.4615 13.69 17.8872 14.25 17.1795 14.25V15.75C17.9275 15.75 18.6449 15.4603 19.1739 14.9445C19.7028 14.4288 20 13.7293 20 13H18.4615Z" fill="white"/>
<path d="M0.769226 1L9.99999 10L19.2308 1" stroke="white" stroke-width="1.5" stroke-linecap="round" stroke-linejoin="round"/>
</svg>
