<svg width="16" height="16" viewBox="0 0 16 16" fill="none" xmlns="http://www.w3.org/2000/svg">
<g clip-path="url(#clip0_442_122)">
<path d="M8 4V6.66667" stroke="white" stroke-width="1.33333" stroke-linecap="round" stroke-linejoin="round"/>
<path d="M9.33317 9.3335H6.6665" stroke="white" stroke-width="1.33333" stroke-linecap="round" stroke-linejoin="round"/>
<path d="M9.33317 12H6.6665" stroke="white" stroke-width="1.33333" stroke-linecap="round" stroke-linejoin="round"/>
<path d="M9.33317 5.3335H6.6665" stroke="white" stroke-width="1.33333" stroke-linecap="round" stroke-linejoin="round"/>
<path d="M12.0002 8H13.3335C13.6871 8 14.0263 8.14048 14.2763 8.39052C14.5264 8.64057 14.6668 8.97971 14.6668 9.33333V13.3333C14.6668 13.687 14.5264 14.0261 14.2763 14.2761C14.0263 14.5262 13.6871 14.6667 13.3335 14.6667H2.66683C2.31321 14.6667 1.97407 14.5262 1.72402 14.2761C1.47397 14.0261 1.3335 13.687 1.3335 13.3333V7.33333C1.3335 6.97971 1.47397 6.64057 1.72402 6.39052C1.97407 6.14048 2.31321 6 2.66683 6H4.00016" stroke="white" stroke-width="1.33333" stroke-linecap="round" stroke-linejoin="round"/>
<path d="M12 14.6668V2.66683C12 2.31321 11.8595 1.97407 11.6095 1.72402C11.3594 1.47397 11.0203 1.3335 10.6667 1.3335H5.33333C4.97971 1.3335 4.64057 1.47397 4.39052 1.72402C4.14048 1.97407 4 2.31321 4 2.66683V14.6668" stroke="white" stroke-width="1.33333" stroke-linecap="round" stroke-linejoin="round"/>
</g>
<defs>
<clipPath id="clip0_442_122">
<rect width="16" height="16" fill="white"/>
</clipPath>
</defs>
</svg>
