<svg width="261" height="75" viewBox="0 0 261 75" fill="none" xmlns="http://www.w3.org/2000/svg">
<g clip-path="url(#clip0_169_1988)">
<path d="M139.818 1.10242H131.472C131.234 1.10242 130.995 1.10242 130.786 1.19196C130.578 1.28151 130.369 1.40072 130.19 1.54957C130.011 1.69841 129.892 1.90716 129.803 2.1159C129.713 2.32465 129.654 2.56304 129.684 2.80143V3.93351L132.635 8.58222L131.829 9.38695C129.386 6.49656 126.346 4.17191 122.948 2.59269C119.52 0.98322 115.824 0.11919 112.039 0.0895386C105.005 0.416887 98.358 3.45672 93.4999 8.55257C88.6412 13.6484 85.8993 20.413 85.8697 27.4463C85.8697 34.479 88.5221 41.2738 93.3808 46.3993C98.2092 51.5248 104.856 54.5943 111.89 54.9519C115.675 54.9222 119.431 54.0582 122.858 52.4488C126.286 50.8393 129.356 48.5152 131.8 45.6242L132.485 46.1906L129.535 51.048V52.1208C129.535 52.3592 129.564 52.5976 129.654 52.8063C129.743 53.0151 129.863 53.2238 130.042 53.4023C130.22 53.5814 130.399 53.7006 130.638 53.7896C130.846 53.8791 131.085 53.9088 131.323 53.9088H139.818C140.056 53.9088 140.295 53.9088 140.533 53.7896C140.772 53.7006 140.95 53.5814 141.129 53.4023C141.308 53.2238 141.427 53.0447 141.517 52.8063C141.606 52.5679 141.636 52.3295 141.636 52.0912V2.80143C141.636 2.56304 141.636 2.32465 141.517 2.1159C141.427 1.90716 141.308 1.69841 141.129 1.54957C140.95 1.40072 140.741 1.25127 140.533 1.19196C140.324 1.10242 140.086 1.10242 139.847 1.10242H139.818ZM111.86 43.1513C107.717 43.1513 103.723 41.5122 100.802 38.5619C97.881 35.6413 96.2122 31.6479 96.2122 27.5056C96.2122 23.3633 97.8513 19.3705 100.802 16.4499C103.723 13.5292 107.717 11.8605 111.86 11.8605C116.003 11.8605 119.997 13.4996 122.918 16.4499C125.839 19.3705 127.508 23.3633 127.508 27.5056C127.508 31.6479 125.869 35.6413 122.918 38.5619C119.997 41.482 116.003 43.1513 111.86 43.1513Z" fill="#75EEA5"/>
<path d="M196.895 1.10242H188.341C186.97 1.10242 186.225 1.84785 186.225 2.56304V28.34C186.344 30.1582 186.076 31.9462 185.45 33.6446C184.824 35.3436 183.84 36.8932 182.559 38.1741C181.277 39.4556 179.757 40.4691 178.088 41.1244C176.418 41.7803 174.6 42.078 172.782 41.989C165.271 41.989 160.443 36.3861 160.443 28.3702V2.59268C160.443 1.8775 159.281 1.13207 158.535 1.13207H149.207C148.819 1.16231 148.461 1.34081 148.193 1.60886C147.925 1.8775 147.746 2.23509 147.716 2.62234V28.251C147.627 34.9558 150.22 41.393 154.899 46.2202C159.579 51.0184 165.957 53.7896 172.663 53.8791C179.071 53.8791 185.241 51.5551 190.04 47.3233L190.517 47.7704L186.731 52.9552V55.0414C186.731 60.3164 178.773 63.2963 174.154 63.2963H171.203C170.964 63.2963 170.726 63.2963 170.487 63.3853C170.249 63.4748 170.04 63.594 169.891 63.7435C169.742 63.8923 169.563 64.1011 169.474 64.3092C169.384 64.518 169.325 64.7564 169.295 64.9948V73.4281C169.325 73.9049 169.563 74.3521 169.921 74.6504C170.279 74.9777 170.726 75.1272 171.203 75.1272H174.154C188.311 75.1272 198.654 66.8723 198.654 51.3463V2.68223C198.594 2.26474 198.385 1.8775 198.028 1.60886C197.7 1.34081 197.282 1.19197 196.836 1.22162L196.895 1.10242Z" fill="#75EEA5"/>
<path d="M259.039 1.10242H250.694C250.456 1.10242 250.217 1.10242 250.008 1.19197C249.8 1.28151 249.591 1.40072 249.412 1.54957C249.233 1.69841 249.114 1.90716 249.025 2.1159C248.935 2.32465 248.876 2.56304 248.906 2.80143V3.93351L251.857 8.58222L251.052 9.38695C248.607 6.49656 245.567 4.17191 242.17 2.59269C238.742 0.983221 235.046 0.11919 231.261 0.0895386C223.988 0.0895386 216.984 2.97993 211.828 8.13567C206.671 13.2908 203.78 20.2642 203.78 27.5655C203.78 34.8662 206.671 41.8396 211.828 46.9953C216.984 52.1511 223.959 55.0414 231.261 55.0414C235.046 55.0118 238.802 54.1472 242.229 52.5383C245.657 50.9288 248.727 48.6048 251.171 45.7138L251.857 46.2801L248.906 51.1376V52.2104C248.906 52.4488 248.935 52.6872 249.025 52.8959C249.114 53.1046 249.233 53.3128 249.412 53.4919C249.591 53.6704 249.77 53.7896 250.008 53.8791C250.217 53.9687 250.456 53.9983 250.694 53.9983H259.039C259.278 53.9983 259.517 53.9983 259.755 53.8791C259.994 53.7896 260.172 53.6704 260.351 53.4919C260.53 53.3128 260.649 53.1343 260.738 52.8959C260.828 52.6575 260.858 52.4191 260.858 52.1807V2.80143C260.858 2.56304 260.858 2.32465 260.738 2.1159C260.649 1.90716 260.53 1.69841 260.351 1.54957C260.172 1.40072 259.963 1.25127 259.755 1.19197C259.546 1.10242 259.308 1.10242 259.069 1.10242H259.039ZM231.231 43.1513C227.088 43.1513 223.094 41.5122 220.173 38.5619C217.252 35.6116 215.583 31.6479 215.583 27.5056C215.583 23.3633 217.223 19.3705 220.173 16.4499C223.094 13.5292 227.088 11.8605 231.231 11.8605C235.374 11.8605 239.368 13.4996 242.289 16.4499C245.21 19.3705 246.879 23.3633 246.879 27.5056C246.879 31.6479 245.24 35.6413 242.289 38.5619C239.368 41.482 235.374 43.1513 231.231 43.1513Z" fill="#75EEA5"/>
<path d="M57.4946 0.029653C51.4738 0.029653 45.7215 2.38396 41.4294 6.58612L43.7547 11.0261L42.8007 11.8012C40.774 8.31418 37.8827 5.39355 34.3953 3.33754C30.9083 1.28153 26.9442 0.208748 22.9204 0.148853C10.2531 0.148853 0 11.2348 0 24.228V52.1807C0 52.4191 1.42168e-06 52.6575 0.119231 52.8662C0.208653 53.0744 0.327824 53.2831 0.506669 53.4622C0.685513 53.6407 0.864356 53.7599 1.10281 53.8495C1.31141 53.939 1.54987 53.9687 1.78833 53.9687H10.9684C11.2069 53.9687 11.4155 53.939 11.6241 53.8495C11.8328 53.7599 12.0116 53.6407 12.1905 53.4919C12.3394 53.343 12.4885 53.1343 12.5481 52.9255C12.6375 52.7168 12.6673 52.5086 12.6673 52.2703V23.9297C12.6673 17.4628 16.5719 12.278 23.2483 12.278C29.4776 12.278 33.9189 16.9267 33.9189 23.8105V47.1145C33.9189 47.3529 33.9189 47.5913 34.0078 47.8C34.0972 48.0088 34.2169 48.2169 34.3657 48.396C34.515 48.5745 34.7236 48.6937 34.9322 48.7833C35.1408 48.8728 35.379 48.9321 35.6178 48.9321H44.3207C44.5595 48.9321 44.7681 48.8728 45.0063 48.7833C45.2149 48.6937 45.3938 48.5449 45.5728 48.396C45.7215 48.2169 45.8406 48.0384 45.9301 47.8C46.0196 47.5913 46.0492 47.3529 46.0196 47.1145V23.8105C45.9301 22.3208 46.1091 20.8305 46.6158 19.4298C47.1224 18.0291 47.8975 16.7476 48.9405 15.6451C49.9538 14.5724 51.206 13.7083 52.5767 13.1123C53.9479 12.546 55.4383 12.2477 56.9287 12.2477C63.5752 12.2477 67.2712 17.5227 67.2712 23.9V52.2104C67.2712 52.6575 67.4798 53.1046 67.8075 53.432C68.1352 53.7599 68.5826 53.939 69.059 53.9088H78.15C78.3882 53.9088 78.627 53.9088 78.8652 53.7896C79.1041 53.7006 79.2824 53.5814 79.4614 53.4023C79.6404 53.2238 79.7595 53.0447 79.8489 52.8064C79.9384 52.568 79.9681 52.3296 79.9681 52.0912V24.1384C79.9681 11.086 70.1618 0 57.5841 0L57.4946 0.029653Z" fill="#75EEA5"/>
</g>
<defs>
<clipPath id="clip0_169_1988">
<rect width="261" height="75" fill="white"/>
</clipPath>
</defs>
</svg>
