<svg width="211" height="79" viewBox="0 0 211 79" fill="none" xmlns="http://www.w3.org/2000/svg">
<g filter="url(#filter0_d_126_470)">
<rect x="15" y="11" width="180.321" height="48.7156" rx="15" fill="white"/>
</g>
<path d="M76.8771 27.2002H79.5061L79.3631 26.7712L78.2081 23.2072C78.1201 23.5226 77.7241 24.7142 77.0201 26.7822L76.8771 27.2002ZM80.4081 29.9062L79.7591 27.9592H76.6241L75.9641 29.9062H75.0071L77.5921 22.4922H78.8241L81.3651 29.9062H80.4081ZM83.9769 29.9062L82.0299 24.3292H82.9319L83.7019 26.6832L84.5159 29.2242C84.5819 28.9089 84.8569 28.0619 85.3409 26.6832L86.1329 24.3292H87.0349L85.0439 29.9062H83.9769ZM91.1147 27.3322H90.1467C89.6773 27.3322 89.3253 27.4239 89.0907 27.6072C88.856 27.7906 88.7387 28.0216 88.7387 28.3002C88.7387 28.5789 88.8303 28.8062 89.0137 28.9822C89.197 29.1509 89.4647 29.2352 89.8167 29.2352C90.2127 29.2352 90.528 29.1252 90.7627 28.9052C90.9973 28.6779 91.1147 28.3919 91.1147 28.0472V27.3322ZM88.2327 25.4952V24.6262C88.6507 24.3696 89.2007 24.2412 89.8827 24.2412C91.2833 24.2412 91.9837 24.9526 91.9837 26.3752V29.9062H91.1257V29.2462C90.8397 29.7229 90.319 29.9613 89.5637 29.9613C89.043 29.9613 88.6213 29.8073 88.2987 29.4992C87.9833 29.1912 87.8257 28.8026 87.8257 28.3332C87.8257 27.7979 88.0273 27.3836 88.4307 27.0902C88.8413 26.7896 89.3987 26.6392 90.1027 26.6392H91.1147V26.3532C91.1147 25.9132 91.0157 25.5832 90.8177 25.3632C90.6197 25.1359 90.286 25.0222 89.8167 25.0222C89.2227 25.0222 88.6947 25.1799 88.2327 25.4952ZM93.5697 29.9062V24.3292H94.4387V29.9062H93.5697ZM93.5917 22.9872C93.4891 22.8772 93.4377 22.7416 93.4377 22.5802C93.4377 22.4189 93.4891 22.2832 93.5917 22.1732C93.7017 22.0632 93.8374 22.0082 93.9987 22.0082C94.1601 22.0082 94.2957 22.0632 94.4057 22.1732C94.5157 22.2832 94.5707 22.4189 94.5707 22.5802C94.5707 22.7416 94.5157 22.8772 94.4057 22.9872C94.2957 23.0899 94.1601 23.1412 93.9987 23.1412C93.8374 23.1412 93.7017 23.0899 93.5917 22.9872ZM96.1371 29.9062V22.1292H97.0061V29.9062H96.1371ZM101.663 27.3322H100.695C100.226 27.3322 99.8741 27.4239 99.6395 27.6072C99.4048 27.7906 99.2875 28.0216 99.2875 28.3002C99.2875 28.5789 99.3791 28.8062 99.5625 28.9822C99.7458 29.1509 100.013 29.2352 100.365 29.2352C100.761 29.2352 101.077 29.1252 101.311 28.9052C101.546 28.6779 101.663 28.3919 101.663 28.0472V27.3322ZM98.7815 25.4952V24.6262C99.1995 24.3696 99.7495 24.2412 100.431 24.2412C101.832 24.2412 102.532 24.9526 102.532 26.3752V29.9062H101.674V29.2462C101.388 29.7229 100.868 29.9613 100.112 29.9613C99.5918 29.9613 99.1701 29.8073 98.8475 29.4992C98.5321 29.1912 98.3745 28.8026 98.3745 28.3332C98.3745 27.7979 98.5761 27.3836 98.9795 27.0902C99.3901 26.7896 99.9475 26.6392 100.651 26.6392H101.663V26.3532C101.663 25.9132 101.564 25.5832 101.366 25.3632C101.168 25.1359 100.835 25.0222 100.365 25.0222C99.7715 25.0222 99.2435 25.1799 98.7815 25.4952ZM106.616 29.2022C107.063 29.2022 107.433 29.0152 107.727 28.6412C108.02 28.2672 108.167 27.7796 108.167 27.1782C108.167 26.4889 108.013 25.9609 107.705 25.5942C107.404 25.2202 107.023 25.0332 106.561 25.0332C106.165 25.0332 105.802 25.1982 105.472 25.5282C105.142 25.8582 104.977 26.3752 104.977 27.0793C104.977 27.8199 105.134 28.3589 105.45 28.6962C105.772 29.0336 106.161 29.2022 106.616 29.2022ZM104.977 22.1292V25.1652C105.38 24.5492 105.945 24.2412 106.671 24.2412C107.375 24.2412 107.95 24.5126 108.398 25.0552C108.845 25.5906 109.069 26.2946 109.069 27.1672C109.069 27.9519 108.856 28.6192 108.431 29.1692C108.013 29.7192 107.433 29.9943 106.693 29.9943C105.945 29.9943 105.373 29.6899 104.977 29.0812V29.9062H104.108V22.1292H104.977ZM110.392 29.9062V22.1292H111.261V29.9062H110.392ZM116.468 26.7602V26.5402C116.468 26.0782 116.344 25.7116 116.094 25.4402C115.845 25.1616 115.5 25.0222 115.06 25.0222C114.642 25.0222 114.287 25.1726 113.993 25.4732C113.7 25.7739 113.528 26.2029 113.476 26.7602H116.468ZM116.985 28.8062V29.6202C116.553 29.8476 116.025 29.9613 115.401 29.9613C114.558 29.9613 113.876 29.7046 113.355 29.1912C112.842 28.6706 112.585 27.9849 112.585 27.1342C112.585 26.2469 112.816 25.5466 113.278 25.0332C113.74 24.5199 114.334 24.2632 115.06 24.2632C115.757 24.2632 116.311 24.4869 116.721 24.9342C117.132 25.3816 117.337 26.0159 117.337 26.8372C117.337 27.0719 117.319 27.2882 117.282 27.4862H113.476C113.542 28.0362 113.751 28.4579 114.103 28.7512C114.455 29.0446 114.917 29.1912 115.489 29.1912C116.113 29.1912 116.611 29.0629 116.985 28.8062ZM123.614 30.0053C122.815 30.0053 122.18 29.7376 121.711 29.2022C121.249 28.6596 121.018 27.9776 121.018 27.1562C121.018 26.3276 121.256 25.6382 121.733 25.0882C122.217 24.5309 122.844 24.2523 123.614 24.2523C124.457 24.2523 125.106 24.5236 125.561 25.0662C126.023 25.6089 126.254 26.2982 126.254 27.1342C126.254 27.9629 126.019 28.6486 125.55 29.1912C125.081 29.7339 124.435 30.0053 123.614 30.0053ZM123.614 25.0222C123.086 25.0222 122.672 25.2276 122.371 25.6382C122.07 26.0489 121.92 26.5512 121.92 27.1452C121.92 27.7246 122.074 28.2196 122.382 28.6302C122.69 29.0336 123.101 29.2352 123.614 29.2352C124.171 29.2352 124.6 29.0372 124.901 28.6412C125.202 28.2379 125.352 27.7392 125.352 27.1452C125.352 26.5292 125.209 26.0232 124.923 25.6272C124.637 25.2239 124.201 25.0222 123.614 25.0222ZM128.383 24.3292V25.2972C128.713 24.6006 129.299 24.2523 130.143 24.2523C130.685 24.2523 131.118 24.4172 131.441 24.7472C131.763 25.0772 131.925 25.5172 131.925 26.0672V29.9062H131.056V26.2982C131.056 25.8876 130.949 25.5759 130.737 25.3632C130.531 25.1432 130.26 25.0332 129.923 25.0332C129.505 25.0332 129.142 25.1946 128.834 25.5172C128.533 25.8399 128.383 26.2872 128.383 26.8592V29.9062H127.525V24.3292H128.383ZM137.35 25.0332V28.3002C137.35 28.8942 137.628 29.1912 138.186 29.1912C138.472 29.1912 138.725 29.1069 138.945 28.9382V29.7632C138.703 29.8953 138.431 29.9613 138.131 29.9613C137.031 29.9613 136.481 29.4002 136.481 28.2782V25.0332H135.59V24.3292H136.481V22.9432H137.35V24.3292H138.89V25.0332H137.35ZM141.069 22.1292V25.2972C141.399 24.6006 141.986 24.2523 142.829 24.2523C143.365 24.2523 143.794 24.4172 144.116 24.7472C144.446 25.0772 144.611 25.5246 144.611 26.0892V29.9062H143.742V26.2982C143.742 25.8949 143.636 25.5832 143.423 25.3632C143.218 25.1432 142.947 25.0332 142.609 25.0332C142.199 25.0332 141.839 25.1909 141.531 25.5062C141.223 25.8216 141.069 26.2726 141.069 26.8592V29.9062H140.211V22.1292H141.069ZM149.705 26.7602V26.5402C149.705 26.0782 149.58 25.7116 149.331 25.4402C149.081 25.1616 148.737 25.0222 148.297 25.0222C147.879 25.0222 147.523 25.1726 147.23 25.4732C146.936 25.7739 146.764 26.2029 146.713 26.7602H149.705ZM150.222 28.8062V29.6202C149.789 29.8476 149.261 29.9613 148.638 29.9613C147.794 29.9613 147.112 29.7046 146.592 29.1912C146.078 28.6706 145.822 27.9849 145.822 27.1342C145.822 26.2469 146.053 25.5466 146.515 25.0332C146.977 24.5199 147.571 24.2632 148.297 24.2632C148.993 24.2632 149.547 24.4869 149.958 24.9342C150.368 25.3816 150.574 26.0159 150.574 26.8372C150.574 27.0719 150.555 27.2882 150.519 27.4862H146.713C146.779 28.0362 146.988 28.4579 147.34 28.7512C147.692 29.0446 148.154 29.1912 148.726 29.1912C149.349 29.1912 149.848 29.0629 150.222 28.8062Z" fill="#056000"/>
<path d="M87.2221 39.2259V45.7059H87.2021L87.2221 45.9259C85.9955 46.8059 84.4621 47.2459 82.6221 47.2459C80.4888 47.2459 78.7621 46.6259 77.4421 45.3859C76.1355 44.1459 75.4821 42.4593 75.4821 40.3259C75.4821 38.2459 76.1555 36.5659 77.5021 35.2859C78.8621 34.0059 80.5755 33.3659 82.6421 33.3659C84.1755 33.3659 85.4888 33.6526 86.5821 34.2259V36.8059C85.3555 36.0726 84.0555 35.7059 82.6821 35.7059C81.3355 35.7059 80.2488 36.1259 79.4221 36.9659C78.5955 37.8059 78.1821 38.9259 78.1821 40.3259C78.1821 41.7526 78.5821 42.8793 79.3821 43.7059C80.1955 44.5193 81.3088 44.9259 82.7221 44.9259C83.4155 44.9259 84.0888 44.8059 84.7421 44.5659V41.3859H82.2621V39.2259H87.2221ZM94.1293 47.2459C92.596 47.2459 91.396 46.7659 90.5293 45.8059C89.676 44.8459 89.2493 43.6193 89.2493 42.1259C89.2493 40.5793 89.696 39.3059 90.5893 38.3059C91.4827 37.2926 92.6627 36.7859 94.1293 36.7859C95.6893 36.7859 96.896 37.2793 97.7493 38.2659C98.6027 39.2393 99.0293 40.4793 99.0293 41.9859C99.0293 43.5193 98.596 44.7793 97.7293 45.7659C96.876 46.7526 95.676 47.2459 94.1293 47.2459ZM94.1293 38.7459C93.3693 38.7459 92.7827 39.0593 92.3693 39.6859C91.9693 40.3126 91.7693 41.0993 91.7693 42.0459C91.7693 42.9793 91.976 43.7593 92.3893 44.3859C92.8027 45.0126 93.3893 45.3259 94.1493 45.3259C94.936 45.3259 95.5293 45.0193 95.9293 44.4059C96.3293 43.7926 96.5293 43.0126 96.5293 42.0659C96.5293 41.0926 96.336 40.2993 95.9493 39.6859C95.5627 39.0593 94.956 38.7459 94.1293 38.7459ZM105.438 47.2459C103.905 47.2459 102.705 46.7659 101.838 45.8059C100.985 44.8459 100.558 43.6193 100.558 42.1259C100.558 40.5793 101.005 39.3059 101.898 38.3059C102.791 37.2926 103.971 36.7859 105.438 36.7859C106.998 36.7859 108.205 37.2793 109.058 38.2659C109.911 39.2393 110.338 40.4793 110.338 41.9859C110.338 43.5193 109.905 44.7793 109.038 45.7659C108.185 46.7526 106.985 47.2459 105.438 47.2459ZM105.438 38.7459C104.678 38.7459 104.091 39.0593 103.678 39.6859C103.278 40.3126 103.078 41.0993 103.078 42.0459C103.078 42.9793 103.285 43.7593 103.698 44.3859C104.111 45.0126 104.698 45.3259 105.458 45.3259C106.245 45.3259 106.838 45.0193 107.238 44.4059C107.638 43.7926 107.838 43.0126 107.838 42.0659C107.838 41.0926 107.645 40.2993 107.258 39.6859C106.871 39.0593 106.265 38.7459 105.438 38.7459ZM116.647 44.8059C117.3 44.8059 117.847 44.5526 118.287 44.0459C118.727 43.5259 118.947 42.8526 118.947 42.0259C118.947 40.9459 118.733 40.1526 118.307 39.6459C117.88 39.1393 117.34 38.8859 116.687 38.8859C115.993 38.8859 115.447 39.1593 115.047 39.7059C114.647 40.2393 114.447 40.9659 114.447 41.8859C114.447 42.8326 114.653 43.5593 115.067 44.0659C115.48 44.5593 116.007 44.8059 116.647 44.8059ZM118.947 36.9459H121.347V46.1659C121.347 47.7659 120.88 48.9659 119.947 49.7659C119.027 50.5793 117.853 50.9859 116.427 50.9859C115.093 50.9859 113.927 50.7459 112.927 50.2659V47.8259C113.833 48.4659 114.92 48.7859 116.187 48.7859C118.027 48.7859 118.947 47.9059 118.947 46.1459V45.2659C118.333 46.2659 117.373 46.7659 116.067 46.7659C114.933 46.7659 113.96 46.3526 113.147 45.5259C112.347 44.6859 111.947 43.4726 111.947 41.8859C111.947 40.4193 112.327 39.2126 113.087 38.2659C113.86 37.3059 114.873 36.8259 116.127 36.8259C117.393 36.8259 118.333 37.3526 118.947 38.4059V36.9459ZM123.932 47.0859V32.9459H126.332V47.0859H123.932ZM135.128 41.1859V40.8859C135.101 40.2326 134.921 39.7126 134.588 39.3259C134.268 38.9259 133.794 38.7259 133.168 38.7259C132.594 38.7259 132.094 38.9393 131.668 39.3659C131.254 39.7793 130.988 40.3859 130.868 41.1859H135.128ZM136.768 44.4459V46.5259C136.061 46.9659 135.041 47.1859 133.708 47.1859C132.094 47.1859 130.821 46.7059 129.888 45.7459C128.954 44.7859 128.488 43.5459 128.488 42.0259C128.488 40.4126 128.928 39.1459 129.808 38.2259C130.688 37.3059 131.788 36.8459 133.108 36.8459C134.428 36.8459 135.474 37.2459 136.248 38.0459C137.021 38.8459 137.408 40.0126 137.408 41.5459C137.408 41.9193 137.361 42.3993 137.268 42.9859H130.908C131.081 43.7193 131.441 44.2793 131.988 44.6659C132.548 45.0526 133.241 45.2459 134.068 45.2459C135.134 45.2459 136.034 44.9793 136.768 44.4459ZM147.194 40.4659H148.614C149.534 40.4659 150.221 40.2459 150.674 39.8059C151.128 39.3659 151.354 38.7726 151.354 38.0259C151.354 37.2926 151.128 36.7193 150.674 36.3059C150.221 35.8793 149.554 35.6659 148.674 35.6659H147.194V40.4659ZM144.674 33.6059H148.894C150.414 33.6059 151.628 34.0193 152.534 34.8459C153.454 35.6726 153.914 36.7326 153.914 38.0259C153.914 39.3993 153.441 40.4926 152.494 41.3059C151.561 42.1059 150.381 42.5059 148.954 42.5059H147.194V47.0859H144.674V33.6059ZM155.788 47.0859V32.9459H158.188V47.0859H155.788ZM166.063 42.7259H164.823C164.196 42.7259 163.716 42.8593 163.383 43.1259C163.05 43.3793 162.883 43.7059 162.883 44.1059C162.883 44.9593 163.376 45.3859 164.363 45.3859C164.896 45.3859 165.31 45.2326 165.603 44.9259C165.91 44.6059 166.063 44.1926 166.063 43.6859V42.7259ZM161.143 39.6859V37.4659C161.903 36.9993 162.996 36.7659 164.423 36.7659C167.17 36.7659 168.543 38.0459 168.543 40.6059V47.0859H166.163V45.8659C165.696 46.7326 164.816 47.1659 163.523 47.1659C162.563 47.1659 161.796 46.8859 161.223 46.3259C160.663 45.7659 160.383 45.0593 160.383 44.2059C160.383 43.2459 160.743 42.4926 161.463 41.9459C162.183 41.3993 163.223 41.1259 164.583 41.1259H166.063V40.5059C166.063 39.9459 165.916 39.5193 165.623 39.2259C165.33 38.9326 164.83 38.7859 164.123 38.7859C163.043 38.7859 162.05 39.0859 161.143 39.6859ZM173.84 46.8859L169.84 36.9459H172.5L173.68 40.1859C174.04 41.1459 174.326 41.9526 174.54 42.6059C174.766 43.2593 174.906 43.6726 174.96 43.8459L175.02 44.1259C175.153 43.6593 175.58 42.3459 176.3 40.1859L177.36 36.9459H179.88L176.22 46.8059C175.206 49.5126 173.66 50.8659 171.58 50.8659C171.193 50.8659 170.86 50.8326 170.58 50.7659V48.7859C170.793 48.8393 171.02 48.8659 171.26 48.8659C172.473 48.8659 173.333 48.2059 173.84 46.8859Z" fill="#056000"/>
<path d="M47.4013 34.0174L52.1729 28.905L33.6546 18.9074C33.541 18.7938 33.3138 18.7938 32.973 18.6802L47.4013 34.0174Z" fill="url(#paint0_linear_126_470)"/>
<path d="M54.2179 41.4019L60.9208 37.7664C61.7161 37.312 62.1705 36.6304 62.1705 35.7215C62.1705 34.8126 61.7161 34.0173 60.9208 33.6765L54.2179 30.041L48.8782 35.7215L54.2179 41.4019Z" fill="url(#paint1_linear_126_470)"/>
<path d="M30.8144 19.7026C30.4735 20.0435 30.3599 20.4979 30.3599 20.9523V50.4907C30.3599 50.9452 30.4735 51.3996 30.8144 51.8541L45.8108 35.7215L30.8144 19.7026Z" fill="url(#paint2_linear_126_470)"/>
<path d="M47.4013 37.4258L32.973 52.763C33.2002 52.763 33.4274 52.6494 33.6546 52.5358L52.1729 42.5382L47.4013 37.4258Z" fill="url(#paint3_linear_126_470)"/>
<defs>
<filter id="filter0_d_126_470" x="0" y="0" width="210.321" height="78.7158" filterUnits="userSpaceOnUse" color-interpolation-filters="sRGB">
<feFlood flood-opacity="0" result="BackgroundImageFix"/>
<feColorMatrix in="SourceAlpha" type="matrix" values="0 0 0 0 0 0 0 0 0 0 0 0 0 0 0 0 0 0 127 0" result="hardAlpha"/>
<feOffset dy="4"/>
<feGaussianBlur stdDeviation="7.5"/>
<feComposite in2="hardAlpha" operator="out"/>
<feColorMatrix type="matrix" values="0 0 0 0 0 0 0 0 0 0 0 0 0 0 0 0 0 0 0.25 0"/>
<feBlend mode="normal" in2="BackgroundImageFix" result="effect1_dropShadow_126_470"/>
<feBlend mode="normal" in="SourceGraphic" in2="effect1_dropShadow_126_470" result="shape"/>
</filter>
<linearGradient id="paint0_linear_126_470" x1="42.5729" y1="18.6802" x2="42.5729" y2="34.0174" gradientUnits="userSpaceOnUse">
<stop stop-color="#044F00"/>
<stop offset="0.9999" stop-color="#078E00"/>
</linearGradient>
<linearGradient id="paint1_linear_126_470" x1="55.5244" y1="30.041" x2="55.5244" y2="41.4019" gradientUnits="userSpaceOnUse">
<stop stop-color="#044F00"/>
<stop offset="0.9999" stop-color="#078E00"/>
</linearGradient>
<linearGradient id="paint2_linear_126_470" x1="38.0854" y1="19.7026" x2="38.0854" y2="51.8541" gradientUnits="userSpaceOnUse">
<stop stop-color="#044F00"/>
<stop offset="0.9999" stop-color="#078E00"/>
</linearGradient>
<linearGradient id="paint3_linear_126_470" x1="42.5729" y1="37.4258" x2="42.5729" y2="52.763" gradientUnits="userSpaceOnUse">
<stop stop-color="#044F00"/>
<stop offset="0.9999" stop-color="#078E00"/>
</linearGradient>
</defs>
</svg>
