<svg width="448" height="127" viewBox="0 0 448 127" fill="none" xmlns="http://www.w3.org/2000/svg">
<path d="M45.5688 83.016L45.8203 82.9155C46.3232 82.1617 44.8144 82.1617 45.3173 82.9155L45.5688 83.016Z" fill="#231F20"/>
<path d="M87.2145 103.72C88.9246 110.152 90.0311 116.634 90.6347 123.067C103.058 120.152 114.777 115.428 125.289 109.147C112.715 109.247 99.8893 107.489 87.2145 103.72Z" fill="#929394"/>
<path d="M62.4685 126.434C72.1255 126.333 81.5813 125.177 90.6347 123.067C90.0311 116.584 88.9246 110.102 87.2145 103.72C83.3417 102.564 79.4688 101.207 75.6463 99.6493C72.377 108.946 68.0012 117.941 62.4685 126.434Z" fill="#929394"/>
<path d="M70.0131 97.2372C61.1608 93.1669 53.0127 88.2924 45.5688 82.7145C39.4326 95.981 35.8112 109.901 34.5538 123.77C35.5598 123.971 36.5657 124.172 37.6219 124.373C45.9712 125.881 54.3205 126.584 62.4685 126.534C68.0012 118.042 72.4273 108.996 75.6463 99.7498C73.735 98.9961 71.874 98.192 70.0131 97.3378" fill="#929394"/>
<path d="M79.5694 37.7391C84.247 33.719 89.1761 30.1008 94.256 26.8847L93.5016 26.0304C84.2973 15.4776 73.8356 6.83424 62.6194 -3.8147e-06C70.9687 11.6082 76.6019 24.3721 79.5694 37.7391Z" fill="#CD2035"/>
<path d="M81.6316 50.302C90.685 48.7442 99.9899 48.1915 109.446 48.6437C105.221 41.0557 100.191 33.7692 94.3064 26.8847C89.2264 30.1008 84.3476 33.7189 79.6197 37.7391C80.525 41.91 81.2292 46.0809 81.6316 50.302Z" fill="#CD2035"/>
<path d="M81.6316 50.3021C82.7884 61.2569 82.1849 72.4128 80.0724 83.418C94.1052 81.8602 107.434 78.0411 119.606 72.2621C117.041 64.2218 113.671 56.282 109.446 48.694C100.04 48.1915 90.685 48.7443 81.6316 50.3523" fill="#CD2035"/>
<path d="M45.5688 82.6642C44.3617 82.4632 43.1546 82.2622 41.9474 82.0612C35.9621 80.9556 30.178 79.4984 24.5447 77.6893C14.3848 86.9356 5.93497 98.2423 -4.57764e-05 111.408C10.5623 116.936 22.1808 121.207 34.5538 123.72C35.8112 109.85 39.4326 95.9307 45.5688 82.6642Z" fill="#951A28"/>
<path d="M45.5688 82.6642C40.8409 79.1466 36.4651 75.3275 32.3407 71.2571C29.675 73.2671 27.0596 75.428 24.5447 77.6893C30.178 79.4984 35.9621 81.0059 41.9474 82.0612C43.1546 82.2622 44.3617 82.4632 45.5688 82.6642Z" fill="#951A28"/>
<path d="M62.6194 55.2267C51.6547 59.0459 41.4445 64.4228 32.3407 71.2571C36.4651 75.3275 40.8409 79.1466 45.5688 82.6642C49.9949 73.0661 55.6785 63.8198 62.6194 55.2267Z" fill="#951A28"/>
<path d="M59.4004 51.3573C60.507 52.6136 61.5632 53.9202 62.6194 55.2267C63.6757 53.9202 64.7319 52.6136 65.8384 51.3573C70.1639 46.3824 74.7409 41.8597 79.5694 37.7391C76.5516 24.4224 70.9687 11.6082 62.6194 -3.8147e-06C51.4032 6.78399 40.8912 15.4776 31.7372 26.0304L31.0331 26.8847C41.2936 33.4174 50.9003 41.6085 59.4004 51.3573Z" fill="#E22F30"/>
<path d="M65.8384 51.3574C64.7319 52.6136 63.6756 53.9202 62.6194 55.2267C68.7556 53.0659 75.093 51.4578 81.6316 50.302C81.2292 46.0809 80.525 41.91 79.6197 37.7391C74.7912 41.8597 70.1639 46.4327 65.8887 51.3574" fill="#E22F30"/>
<path d="M62.6194 55.2267C69.7616 64.071 75.5456 73.5686 80.0221 83.3677C82.1848 72.4128 82.7381 61.2067 81.5812 50.2518C75.093 51.4076 68.7053 53.0156 62.5691 55.1765" fill="#E22F30"/>
<path d="M80.0221 83.418C83.0399 90.0512 85.4542 96.8352 87.2145 103.72C99.8893 107.489 112.715 109.247 125.289 109.147C125.289 96.8352 123.378 84.423 119.555 72.2621C107.384 78.0411 94.0549 81.8602 80.0221 83.418Z" fill="#B2B4B4"/>
<path d="M75.6463 99.6493C79.4688 101.207 83.3417 102.564 87.2145 103.72C85.4541 96.8352 83.0399 90.0512 80.0221 83.418C78.9658 88.8954 77.5072 94.3226 75.6463 99.6493Z" fill="#B2B4B4"/>
<path d="M45.5688 82.6642C53.0127 88.2422 61.1608 93.1668 70.0131 97.187C71.874 98.0413 73.7853 98.8453 75.6463 99.5991C77.5073 94.2724 78.9658 88.8452 80.0221 83.3677C68.8562 84.624 57.2879 84.423 45.5185 82.614" fill="#B2B4B4"/>
<path d="M20.3198 76.232C15.4913 74.4732 10.8137 72.4631 6.33732 70.2018C3.31951 79.1968 1.35792 88.3929 0.502876 97.589C6.13611 89.4482 12.8256 82.3124 20.3198 76.232Z" fill="#5C0D1F"/>
<path d="M30.2283 69.1465C24.4945 63.2168 19.4648 56.7845 15.089 50.0005C11.5682 56.5835 8.60067 63.3675 6.33732 70.2018C10.8137 72.4631 15.4913 74.4732 20.3198 76.232C23.4885 73.6691 26.8081 71.3073 30.2283 69.1465Z" fill="#5C0D1F"/>
<path d="M62.6194 55.2267C61.5632 53.9202 60.507 52.6639 59.4004 51.3574C50.9003 41.6085 41.2936 33.4174 31.033 26.8847C24.7962 34.121 19.4648 41.91 15.1393 49.9503C19.5151 56.7343 24.5447 63.1665 30.2786 69.0962C40.187 62.8148 51.1015 58.1413 62.6194 55.2267Z" fill="#5C0D1F"/>
<path fill-rule="evenodd" clip-rule="evenodd" d="M361.835 33.6185C351.474 24.4224 335.63 21.9098 326.124 21.9098H293.683V109.046H326.124C335.63 109.046 351.474 106.584 361.835 97.3377C375.013 85.5788 374.661 65.5786 374.661 65.4781C374.661 65.3776 375.013 45.3774 361.835 33.6185ZM348.305 83.8703C343.024 89.4985 333.367 92.0613 324.414 92.0613H313.801V38.8949H324.414C333.367 38.8949 343.024 41.4075 348.305 47.0859C354.844 54.0709 354.441 65.4781 354.441 65.4781C354.441 65.4781 354.844 76.9355 348.305 83.9205V83.8703ZM209.335 28.6435C200.332 21.96 186.4 21.9098 178.101 21.9098H149.884V109.046H169.802V84.7748H178.151C186.45 84.7748 200.332 84.7748 209.385 78.0913C220.903 69.5988 220.702 53.4679 220.702 53.3674C220.702 53.3674 220.903 37.1361 209.385 28.6435H209.335ZM195.654 64.7243C191.731 67.7897 185.696 67.7897 182.125 67.7897H169.802V38.8949H182.125C185.696 38.8949 191.731 38.8949 195.654 41.9602C200.684 45.8799 200.131 53.3172 200.131 53.3172C200.131 53.3172 200.684 60.7544 195.654 64.6741V64.7243ZM375.415 21.8595V38.9451H400.815V109.097H420.783V38.9451H428.126C443.467 38.9451 447.189 21.8595 447.189 21.8595H375.415ZM247.963 21.9098H228.247V109.046H286.038V91.408H248.013V21.9098H247.963Z" fill="#D0202F"/>
</svg>
