<svg width="278" height="97" viewBox="0 0 278 97" fill="none" xmlns="http://www.w3.org/2000/svg">
<g opacity="0.9" filter="url(#filter0_d_120_285)">
<rect x="15" y="11" width="248" height="67" rx="15" fill="white"/>
</g>
<path d="M100.28 33.064H104.104L103.896 32.44L102.216 27.256C102.088 27.7147 101.512 29.448 100.488 32.456L100.28 33.064ZM105.416 37L104.472 34.168H99.912L98.952 37H97.56L101.32 26.216H103.112L106.808 37H105.416ZM110.607 37L107.775 28.888H109.087L110.207 32.312L111.391 36.008C111.487 35.5493 111.887 34.3173 112.591 32.312L113.743 28.888H115.055L112.159 37H110.607ZM120.989 33.256H119.581C118.898 33.256 118.386 33.3893 118.045 33.656C117.704 33.9227 117.533 34.2587 117.533 34.664C117.533 35.0693 117.666 35.4 117.933 35.656C118.2 35.9013 118.589 36.024 119.101 36.024C119.677 36.024 120.136 35.864 120.477 35.544C120.818 35.2133 120.989 34.7973 120.989 34.296V33.256ZM116.797 30.584V29.32C117.405 28.9467 118.205 28.76 119.197 28.76C121.234 28.76 122.253 29.7947 122.253 31.864V37H121.005V36.04C120.589 36.7333 119.832 37.08 118.733 37.08C117.976 37.08 117.362 36.856 116.893 36.408C116.434 35.96 116.205 35.3947 116.205 34.712C116.205 33.9333 116.498 33.3307 117.085 32.904C117.682 32.4667 118.493 32.248 119.517 32.248H120.989V31.832C120.989 31.192 120.845 30.712 120.557 30.392C120.269 30.0613 119.784 29.896 119.101 29.896C118.237 29.896 117.469 30.1253 116.797 30.584ZM124.56 37V28.888H125.824V37H124.56ZM124.592 26.936C124.443 26.776 124.368 26.5787 124.368 26.344C124.368 26.1093 124.443 25.912 124.592 25.752C124.752 25.592 124.949 25.512 125.184 25.512C125.419 25.512 125.616 25.592 125.776 25.752C125.936 25.912 126.016 26.1093 126.016 26.344C126.016 26.5787 125.936 26.776 125.776 26.936C125.616 27.0853 125.419 27.16 125.184 27.16C124.949 27.16 124.752 27.0853 124.592 26.936ZM128.295 37V25.688H129.559V37H128.295ZM136.333 33.256H134.925C134.242 33.256 133.73 33.3893 133.389 33.656C133.048 33.9227 132.877 34.2587 132.877 34.664C132.877 35.0693 133.01 35.4 133.277 35.656C133.544 35.9013 133.933 36.024 134.445 36.024C135.021 36.024 135.48 35.864 135.821 35.544C136.162 35.2133 136.333 34.7973 136.333 34.296V33.256ZM132.141 30.584V29.32C132.749 28.9467 133.549 28.76 134.541 28.76C136.578 28.76 137.597 29.7947 137.597 31.864V37H136.349V36.04C135.933 36.7333 135.176 37.08 134.077 37.08C133.32 37.08 132.706 36.856 132.237 36.408C131.778 35.96 131.549 35.3947 131.549 34.712C131.549 33.9333 131.842 33.3307 132.429 32.904C133.026 32.4667 133.837 32.248 134.861 32.248H136.333V31.832C136.333 31.192 136.189 30.712 135.901 30.392C135.613 30.0613 135.128 29.896 134.445 29.896C133.581 29.896 132.813 30.1253 132.141 30.584ZM143.536 35.976C144.187 35.976 144.725 35.704 145.152 35.16C145.579 34.616 145.792 33.9067 145.792 33.032C145.792 32.0293 145.568 31.2613 145.12 30.728C144.683 30.184 144.128 29.912 143.456 29.912C142.88 29.912 142.352 30.152 141.872 30.632C141.392 31.112 141.152 31.864 141.152 32.888C141.152 33.9653 141.381 34.7493 141.84 35.24C142.309 35.7307 142.875 35.976 143.536 35.976ZM141.152 25.688V30.104C141.739 29.208 142.56 28.76 143.616 28.76C144.64 28.76 145.477 29.1547 146.128 29.944C146.779 30.7227 147.104 31.7467 147.104 33.016C147.104 34.1573 146.795 35.128 146.176 35.928C145.568 36.728 144.725 37.128 143.648 37.128C142.56 37.128 141.728 36.6853 141.152 35.8V37H139.888V25.688H141.152ZM149.029 37V25.688H150.293V37H149.029ZM157.867 32.424V32.104C157.867 31.432 157.686 30.8987 157.323 30.504C156.961 30.0987 156.459 29.896 155.819 29.896C155.211 29.896 154.694 30.1147 154.267 30.552C153.841 30.9893 153.59 31.6133 153.515 32.424H157.867ZM158.619 35.4V36.584C157.99 36.9147 157.222 37.08 156.315 37.08C155.089 37.08 154.097 36.7067 153.339 35.96C152.593 35.2027 152.219 34.2053 152.219 32.968C152.219 31.6773 152.555 30.6587 153.227 29.912C153.899 29.1653 154.763 28.792 155.819 28.792C156.833 28.792 157.638 29.1173 158.235 29.768C158.833 30.4187 159.131 31.3413 159.131 32.536C159.131 32.8773 159.105 33.192 159.051 33.48H153.515C153.611 34.28 153.915 34.8933 154.427 35.32C154.939 35.7467 155.611 35.96 156.443 35.96C157.35 35.96 158.075 35.7733 158.619 35.4ZM168.261 37.144C167.098 37.144 166.176 36.7547 165.493 35.976C164.821 35.1867 164.485 34.1947 164.485 33C164.485 31.7947 164.832 30.792 165.525 29.992C166.229 29.1813 167.141 28.776 168.261 28.776C169.488 28.776 170.432 29.1707 171.093 29.96C171.765 30.7493 172.101 31.752 172.101 32.968C172.101 34.1733 171.76 35.1707 171.077 35.96C170.394 36.7493 169.456 37.144 168.261 37.144ZM168.261 29.896C167.493 29.896 166.89 30.1947 166.453 30.792C166.016 31.3893 165.797 32.12 165.797 32.984C165.797 33.8267 166.021 34.5467 166.469 35.144C166.917 35.7307 167.514 36.024 168.261 36.024C169.072 36.024 169.696 35.736 170.133 35.16C170.57 34.5733 170.789 33.848 170.789 32.984C170.789 32.088 170.581 31.352 170.165 30.776C169.749 30.1893 169.114 29.896 168.261 29.896ZM175.197 28.888V30.296C175.677 29.2827 176.531 28.776 177.757 28.776C178.547 28.776 179.176 29.016 179.645 29.496C180.115 29.976 180.349 30.616 180.349 31.416V37H179.085V31.752C179.085 31.1547 178.931 30.7013 178.621 30.392C178.323 30.072 177.928 29.912 177.437 29.912C176.829 29.912 176.301 30.1467 175.853 30.616C175.416 31.0853 175.197 31.736 175.197 32.568V37H173.949V28.888H175.197ZM188.24 29.912V34.664C188.24 35.528 188.645 35.96 189.456 35.96C189.872 35.96 190.24 35.8373 190.56 35.592V36.792C190.208 36.984 189.813 37.08 189.376 37.08C187.776 37.08 186.976 36.264 186.976 34.632V29.912H185.68V28.888H186.976V26.872H188.24V28.888H190.48V29.912H188.24ZM193.65 25.688V30.296C194.13 29.2827 194.984 28.776 196.21 28.776C196.989 28.776 197.613 29.016 198.082 29.496C198.562 29.976 198.802 30.6267 198.802 31.448V37H197.538V31.752C197.538 31.1653 197.384 30.712 197.074 30.392C196.776 30.072 196.381 29.912 195.89 29.912C195.293 29.912 194.77 30.1413 194.322 30.6C193.874 31.0587 193.65 31.7147 193.65 32.568V37H192.402V25.688H193.65ZM206.211 32.424V32.104C206.211 31.432 206.03 30.8987 205.667 30.504C205.304 30.0987 204.803 29.896 204.163 29.896C203.555 29.896 203.038 30.1147 202.611 30.552C202.184 30.9893 201.934 31.6133 201.859 32.424H206.211ZM206.963 35.4V36.584C206.334 36.9147 205.566 37.08 204.659 37.08C203.432 37.08 202.44 36.7067 201.683 35.96C200.936 35.2027 200.563 34.2053 200.563 32.968C200.563 31.6773 200.899 30.6587 201.571 29.912C202.243 29.1653 203.107 28.792 204.163 28.792C205.176 28.792 205.982 29.1173 206.579 29.768C207.176 30.4187 207.475 31.3413 207.475 32.536C207.475 32.8773 207.448 33.192 207.395 33.48H201.859C201.955 34.28 202.259 34.8933 202.771 35.32C203.283 35.7467 203.955 35.96 204.787 35.96C205.694 35.96 206.419 35.7733 206.963 35.4Z" fill="#056000"/>
<path d="M114.64 49.996V59.068H114.612L114.64 59.376C112.923 60.608 110.776 61.224 108.2 61.224C105.213 61.224 102.796 60.356 100.948 58.62C99.1187 56.884 98.204 54.5227 98.204 51.536C98.204 48.624 99.1467 46.272 101.032 44.48C102.936 42.688 105.335 41.792 108.228 41.792C110.375 41.792 112.213 42.1933 113.744 42.996V46.608C112.027 45.5813 110.207 45.068 108.284 45.068C106.399 45.068 104.877 45.656 103.72 46.832C102.563 48.008 101.984 49.576 101.984 51.536C101.984 53.5333 102.544 55.1107 103.664 56.268C104.803 57.4067 106.361 57.976 108.34 57.976C109.311 57.976 110.253 57.808 111.168 57.472V53.02H107.696V49.996H114.64ZM124.31 61.224C122.163 61.224 120.483 60.552 119.27 59.208C118.075 57.864 117.478 56.1467 117.478 54.056C117.478 51.8907 118.103 50.108 119.354 48.708C120.605 47.2893 122.257 46.58 124.31 46.58C126.494 46.58 128.183 47.2707 129.378 48.652C130.573 50.0147 131.17 51.7507 131.17 53.86C131.17 56.0067 130.563 57.7707 129.35 59.152C128.155 60.5333 126.475 61.224 124.31 61.224ZM124.31 49.324C123.246 49.324 122.425 49.7627 121.846 50.64C121.286 51.5173 121.006 52.6187 121.006 53.944C121.006 55.2507 121.295 56.3427 121.874 57.22C122.453 58.0973 123.274 58.536 124.338 58.536C125.439 58.536 126.27 58.1067 126.83 57.248C127.39 56.3893 127.67 55.2973 127.67 53.972C127.67 52.6093 127.399 51.4987 126.858 50.64C126.317 49.7627 125.467 49.324 124.31 49.324ZM140.142 61.224C137.995 61.224 136.315 60.552 135.102 59.208C133.907 57.864 133.31 56.1467 133.31 54.056C133.31 51.8907 133.935 50.108 135.186 48.708C136.437 47.2893 138.089 46.58 140.142 46.58C142.326 46.58 144.015 47.2707 145.21 48.652C146.405 50.0147 147.002 51.7507 147.002 53.86C147.002 56.0067 146.395 57.7707 145.182 59.152C143.987 60.5333 142.307 61.224 140.142 61.224ZM140.142 49.324C139.078 49.324 138.257 49.7627 137.678 50.64C137.118 51.5173 136.838 52.6187 136.838 53.944C136.838 55.2507 137.127 56.3427 137.706 57.22C138.285 58.0973 139.106 58.536 140.17 58.536C141.271 58.536 142.102 58.1067 142.662 57.248C143.222 56.3893 143.502 55.2973 143.502 53.972C143.502 52.6093 143.231 51.4987 142.69 50.64C142.149 49.7627 141.299 49.324 140.142 49.324ZM155.834 57.808C156.749 57.808 157.514 57.4533 158.13 56.744C158.746 56.016 159.054 55.0733 159.054 53.916C159.054 52.404 158.755 51.2933 158.158 50.584C157.561 49.8747 156.805 49.52 155.89 49.52C154.919 49.52 154.154 49.9027 153.594 50.668C153.034 51.4147 152.754 52.432 152.754 53.72C152.754 55.0453 153.043 56.0627 153.622 56.772C154.201 57.4627 154.938 57.808 155.834 57.808ZM159.054 46.804H162.414V59.712C162.414 61.952 161.761 63.632 160.454 64.752C159.166 65.8907 157.523 66.46 155.526 66.46C153.659 66.46 152.026 66.124 150.626 65.452V62.036C151.895 62.932 153.417 63.38 155.19 63.38C157.766 63.38 159.054 62.148 159.054 59.684V58.452C158.195 59.852 156.851 60.552 155.022 60.552C153.435 60.552 152.073 59.9733 150.934 58.816C149.814 57.64 149.254 55.9413 149.254 53.72C149.254 51.6667 149.786 49.9773 150.85 48.652C151.933 47.308 153.351 46.636 155.106 46.636C156.879 46.636 158.195 47.3733 159.054 48.848V46.804ZM166.034 61V41.204H169.394V61H166.034ZM181.708 52.74V52.32C181.67 51.4053 181.418 50.6773 180.952 50.136C180.504 49.576 179.841 49.296 178.964 49.296C178.161 49.296 177.461 49.5947 176.864 50.192C176.285 50.7707 175.912 51.62 175.744 52.74H181.708ZM184.004 57.304V60.216C183.014 60.832 181.586 61.14 179.72 61.14C177.461 61.14 175.678 60.468 174.372 59.124C173.065 57.78 172.412 56.044 172.412 53.916C172.412 51.6573 173.028 49.884 174.26 48.596C175.492 47.308 177.032 46.664 178.88 46.664C180.728 46.664 182.193 47.224 183.276 48.344C184.358 49.464 184.9 51.0973 184.9 53.244C184.9 53.7667 184.834 54.4387 184.704 55.26H175.8C176.042 56.2867 176.546 57.0707 177.312 57.612C178.096 58.1533 179.066 58.424 180.224 58.424C181.717 58.424 182.977 58.0507 184.004 57.304ZM198.601 51.732H200.589C201.877 51.732 202.839 51.424 203.473 50.808C204.108 50.192 204.425 49.3613 204.425 48.316C204.425 47.2893 204.108 46.4867 203.473 45.908C202.839 45.3107 201.905 45.012 200.673 45.012H198.601V51.732ZM195.073 42.128H200.981C203.109 42.128 204.808 42.7067 206.077 43.864C207.365 45.0213 208.009 46.5053 208.009 48.316C208.009 50.2387 207.347 51.7693 206.021 52.908C204.715 54.028 203.063 54.588 201.065 54.588H198.601V61H195.073V42.128ZM210.632 61V41.204H213.992V61H210.632ZM225.017 54.896H223.281C222.404 54.896 221.732 55.0827 221.265 55.456C220.799 55.8107 220.565 56.268 220.565 56.828C220.565 58.0227 221.256 58.62 222.637 58.62C223.384 58.62 223.963 58.4053 224.373 57.976C224.803 57.528 225.017 56.9493 225.017 56.24V54.896ZM218.129 50.64V47.532C219.193 46.8787 220.724 46.552 222.721 46.552C226.567 46.552 228.489 48.344 228.489 51.928V61H225.157V59.292C224.504 60.5053 223.272 61.112 221.461 61.112C220.117 61.112 219.044 60.72 218.241 59.936C217.457 59.152 217.065 58.1627 217.065 56.968C217.065 55.624 217.569 54.5693 218.577 53.804C219.585 53.0387 221.041 52.656 222.945 52.656H225.017V51.788C225.017 51.004 224.812 50.4067 224.401 49.996C223.991 49.5853 223.291 49.38 222.301 49.38C220.789 49.38 219.399 49.8 218.129 50.64ZM235.905 60.72L230.305 46.804H234.029L235.681 51.34C236.185 52.684 236.586 53.8133 236.885 54.728C237.202 55.6427 237.398 56.2213 237.473 56.464L237.557 56.856C237.743 56.2027 238.341 54.364 239.349 51.34L240.833 46.804H244.361L239.237 60.608C237.818 64.3973 235.653 66.292 232.741 66.292C232.199 66.292 231.733 66.2453 231.341 66.152V63.38C231.639 63.4547 231.957 63.492 232.293 63.492C233.991 63.492 235.195 62.568 235.905 60.72Z" fill="#056000"/>
<path d="M59.5625 42.6562L66.125 35.625L40.6562 21.875C40.5 21.7188 40.1875 21.7188 39.7188 21.5625L59.5625 42.6562Z" fill="url(#paint0_linear_120_285)"/>
<path d="M68.9375 52.8125L78.1562 47.8125C79.25 47.1875 79.875 46.25 79.875 45C79.875 43.75 79.25 42.6562 78.1562 42.1875L68.9375 37.1875L61.5938 45L68.9375 52.8125Z" fill="url(#paint1_linear_120_285)"/>
<path d="M36.75 22.9688C36.2813 23.4375 36.125 24.0625 36.125 24.6875V65.3125C36.125 65.9375 36.2813 66.5625 36.75 67.1875L57.375 45L36.75 22.9688Z" fill="url(#paint2_linear_120_285)"/>
<path d="M59.5625 47.3438L39.7188 68.4375C40.0313 68.4375 40.3437 68.2812 40.6562 68.125L66.125 54.375L59.5625 47.3438Z" fill="url(#paint3_linear_120_285)"/>
<defs>
<filter id="filter0_d_120_285" x="0" y="0" width="278" height="97" filterUnits="userSpaceOnUse" color-interpolation-filters="sRGB">
<feFlood flood-opacity="0" result="BackgroundImageFix"/>
<feColorMatrix in="SourceAlpha" type="matrix" values="0 0 0 0 0 0 0 0 0 0 0 0 0 0 0 0 0 0 127 0" result="hardAlpha"/>
<feOffset dy="4"/>
<feGaussianBlur stdDeviation="7.5"/>
<feComposite in2="hardAlpha" operator="out"/>
<feColorMatrix type="matrix" values="0 0 0 0 0 0 0 0 0 0 0 0 0 0 0 0 0 0 0.25 0"/>
<feBlend mode="normal" in2="BackgroundImageFix" result="effect1_dropShadow_120_285"/>
<feBlend mode="normal" in="SourceGraphic" in2="effect1_dropShadow_120_285" result="shape"/>
</filter>
<linearGradient id="paint0_linear_120_285" x1="52.9219" y1="21.5625" x2="52.9219" y2="42.6562" gradientUnits="userSpaceOnUse">
<stop stop-color="#044F00"/>
<stop offset="0.9999" stop-color="#078E00"/>
</linearGradient>
<linearGradient id="paint1_linear_120_285" x1="70.7344" y1="37.1875" x2="70.7344" y2="52.8125" gradientUnits="userSpaceOnUse">
<stop stop-color="#044F00"/>
<stop offset="0.9999" stop-color="#078E00"/>
</linearGradient>
<linearGradient id="paint2_linear_120_285" x1="46.75" y1="22.9687" x2="46.75" y2="67.1875" gradientUnits="userSpaceOnUse">
<stop stop-color="#044F00"/>
<stop offset="0.9999" stop-color="#078E00"/>
</linearGradient>
<linearGradient id="paint3_linear_120_285" x1="52.9219" y1="47.3438" x2="52.9219" y2="68.4375" gradientUnits="userSpaceOnUse">
<stop stop-color="#044F00"/>
<stop offset="0.9999" stop-color="#078E00"/>
</linearGradient>
</defs>
</svg>
