<svg width="380" height="26" viewBox="0 0 380 26" fill="none" xmlns="http://www.w3.org/2000/svg">
<path d="M6.9 21.42C4.436 21.42 2.616 21.084 0.796 20.356L2.476 15.316C3.456 15.792 5.192 16.212 6.592 16.212C7.572 16.212 8.188 15.848 8.188 15.12C8.188 14.504 7.74 14.056 6.872 13.356C4.94 12.292 3.512 10.78 3.512 8.344C3.512 3.976 6.9 1.008 11.632 1.008C13.648 1.008 15.692 1.372 16.84 1.96L15.188 7.056C14.04 6.524 12.864 6.272 11.744 6.272C10.596 6.272 10.204 6.888 10.204 7.532C10.204 8.064 10.652 8.652 11.52 9.324C13.508 10.332 14.88 12.012 14.88 14.252C14.88 18.564 11.52 21.42 6.9 21.42ZM20.2217 21.392C16.4977 21.392 15.2657 19.18 16.0497 15.54L17.1977 10.024H15.9937L16.4977 7.7L22.5177 1.68H24.8977L24.1137 5.292H27.3617L26.3537 10.024H23.1057L22.0417 15.12C21.9017 15.82 22.0697 16.212 22.7417 16.212C23.1897 16.212 23.7217 16.1 24.4217 15.876L24.2537 20.636C22.7697 21.14 21.3697 21.392 20.2217 21.392ZM36.0657 6.692L36.3737 5.292H42.3097L38.9777 21H33.0417L33.3217 19.74C32.0897 20.944 30.8857 21.392 29.7937 21.392C27.2177 21.392 25.7617 19.404 25.7617 16.24C25.7617 12.04 28.3937 4.9 33.2377 4.9C34.5537 4.9 35.4777 5.572 36.0657 6.692ZM31.8937 14.98C31.8937 15.736 32.1737 16.212 32.7337 16.212C33.4897 16.212 34.3297 14.98 34.6937 13.188C34.9177 11.956 35.0857 10.052 34.0497 10.052C32.6777 10.052 31.8937 13.776 31.8937 14.98ZM48.7644 14.868L52.0124 5.292H58.3404L50.7804 21L48.4564 25.788H42.4924L44.7044 21.196L44.1724 21.224L43.1924 5.292H49.1284L48.7084 14.868H48.7644ZM75.1699 1.4C79.0619 1.4 81.4419 3.304 81.4419 6.86C81.4419 10.92 78.7819 16.408 72.1179 16.408H71.2219L70.2419 21H64.0539L68.2259 1.4H75.1699ZM72.3139 11.228H73.0419C74.5539 11.228 75.2259 9.072 75.2259 8.008C75.2259 7.112 74.7779 6.58 74.0219 6.58H73.3219L72.3139 11.228ZM86.6086 21.392C82.8006 21.392 80.6166 19.292 80.6166 15.428C80.6166 10.724 83.7806 4.872 89.7446 4.872C93.5526 4.872 95.7366 6.972 95.7366 10.78C95.7366 15.484 92.5446 21.392 86.6086 21.392ZM87.6446 16.156C88.9326 16.156 89.6606 12.404 89.6606 11.396C89.6606 10.528 89.2686 10.08 88.7086 10.08C87.4766 10.08 86.6646 13.636 86.6646 14.84C86.6646 15.736 87.0566 16.156 87.6446 16.156ZM108.519 14.448L111.627 5.292H117.815L110.843 21H105.131L105.551 13.72L102.863 21H97.1508L96.8148 5.292H102.919L102.135 14.448L105.327 5.292H109.219L108.519 14.448ZM128.835 14.588H121.359V14.924C121.359 16.044 121.639 16.688 122.927 16.688C123.991 16.688 125.447 16.408 126.623 15.904L126.679 20.16C125.167 20.944 123.431 21.392 121.415 21.392C117.775 21.392 115.535 19.096 115.535 15.428C115.535 10.64 118.811 4.9 124.579 4.9C127.967 4.9 130.039 6.888 130.039 10.024C130.039 11.592 129.535 13.16 128.835 14.588ZM123.655 9.464C122.899 9.464 122.283 10.612 121.891 11.9L124.327 11.872C124.467 11.256 124.495 10.864 124.495 10.528C124.495 9.856 124.215 9.464 123.655 9.464ZM141.031 4.956C141.255 4.956 141.759 5.04 142.067 5.152L140.443 10.808C140.051 10.724 139.435 10.668 138.987 10.668C137.867 10.668 136.915 11.928 136.411 14.28L135.011 21H129.075L132.379 5.292H138.315L138.007 6.804C138.931 5.544 139.967 4.956 141.031 4.956ZM153.635 14.588H146.159V14.924C146.159 16.044 146.439 16.688 147.727 16.688C148.791 16.688 150.247 16.408 151.423 15.904L151.479 20.16C149.967 20.944 148.231 21.392 146.215 21.392C142.575 21.392 140.335 19.096 140.335 15.428C140.335 10.64 143.611 4.9 149.379 4.9C152.767 4.9 154.839 6.888 154.839 10.024C154.839 11.592 154.335 13.16 153.635 14.588ZM148.455 9.464C147.699 9.464 147.083 10.612 146.691 11.9L149.127 11.872C149.267 11.256 149.295 10.864 149.295 10.528C149.295 9.856 149.015 9.464 148.455 9.464ZM158.746 21.364C156.198 21.364 154.77 19.404 154.77 16.24C154.77 12.068 157.346 4.872 162.274 4.872C163.366 4.872 164.402 5.32 165.13 6.524L166.446 0.335999H172.382L167.986 21H162.05L162.33 19.712C161.098 20.916 159.894 21.364 158.746 21.364ZM161.742 16.184C162.554 16.184 163.31 14.952 163.702 13.272C164.01 11.816 163.954 10.052 163.058 10.052C161.686 10.052 160.902 13.804 160.902 14.952C160.902 15.736 161.182 16.184 161.742 16.184ZM170.323 25.788L169.399 23.492C170.799 22.68 171.611 22.204 171.919 21H170.071L171.219 15.484H176.959C176.875 22.764 173.907 24.416 170.323 25.788Z" fill="url(#paint0_linear_4156_632)"/>
<path d="M192.9 21.42C190.436 21.42 188.616 21.084 186.796 20.356L188.476 15.316C189.456 15.792 191.192 16.212 192.592 16.212C193.572 16.212 194.188 15.848 194.188 15.12C194.188 14.504 193.74 14.056 192.872 13.356C190.94 12.292 189.512 10.78 189.512 8.344C189.512 3.976 192.9 1.008 197.632 1.008C199.648 1.008 201.692 1.372 202.84 1.96L201.188 7.056C200.04 6.524 198.864 6.272 197.744 6.272C196.596 6.272 196.204 6.888 196.204 7.532C196.204 8.064 196.652 8.652 197.52 9.324C199.508 10.332 200.88 12.012 200.88 14.252C200.88 18.564 197.52 21.42 192.9 21.42ZM206.222 21.392C202.498 21.392 201.266 19.18 202.05 15.54L203.198 10.024H201.994L202.498 7.7L208.518 1.68H210.898L210.114 5.292H213.362L212.354 10.024H209.106L208.042 15.12C207.902 15.82 208.07 16.212 208.742 16.212C209.19 16.212 209.722 16.1 210.422 15.876L210.254 20.636C208.77 21.14 207.37 21.392 206.222 21.392ZM222.066 6.692L222.374 5.292H228.31L224.978 21H219.042L219.322 19.74C218.09 20.944 216.886 21.392 215.794 21.392C213.218 21.392 211.762 19.404 211.762 16.24C211.762 12.04 214.394 4.9 219.238 4.9C220.554 4.9 221.478 5.572 222.066 6.692ZM217.894 14.98C217.894 15.736 218.174 16.212 218.734 16.212C219.49 16.212 220.33 14.98 220.694 13.188C220.918 11.956 221.086 10.052 220.05 10.052C218.678 10.052 217.894 13.776 217.894 14.98ZM234.764 14.868L238.012 5.292H244.34L236.78 21L234.456 25.788H228.492L230.704 21.196L230.172 21.224L229.192 5.292H235.128L234.708 14.868H234.764ZM258.23 21.392C253.862 21.392 251.398 18.788 251.398 14.42C251.398 8.596 254.926 1.008 262.346 1.008C264.026 1.008 265.566 1.428 266.882 2.184L264.278 7.448C263.438 6.916 262.71 6.692 261.73 6.692C259.042 6.692 257.81 11.284 257.81 13.412C257.81 14.98 258.566 15.736 259.658 15.736C260.722 15.736 261.73 15.456 262.682 14.952L263.102 20.216C261.758 20.916 259.798 21.392 258.23 21.392ZM270.695 21.392C266.887 21.392 264.703 19.292 264.703 15.428C264.703 10.724 267.867 4.872 273.831 4.872C277.639 4.872 279.823 6.972 279.823 10.78C279.823 15.484 276.631 21.392 270.695 21.392ZM271.731 16.156C273.019 16.156 273.747 12.404 273.747 11.396C273.747 10.528 273.355 10.08 272.794 10.08C271.562 10.08 270.751 13.636 270.751 14.84C270.751 15.736 271.143 16.156 271.731 16.156ZM292.193 4.872C294.853 4.872 295.945 6.804 295.133 10.64L292.949 21H287.013L288.945 11.844C289.197 10.696 288.973 10.248 288.385 10.248C288.021 10.248 287.545 10.528 287.125 11.144L285.053 21H279.145L282.449 5.292H288.357L287.937 7.28C289.029 5.824 290.513 4.872 292.193 4.872ZM307.588 4.872C310.248 4.872 311.34 6.804 310.528 10.64L308.344 21H302.408L304.34 11.844C304.592 10.696 304.368 10.248 303.78 10.248C303.416 10.248 302.94 10.528 302.52 11.144L300.448 21H294.54L297.844 5.292H303.752L303.332 7.28C304.424 5.824 305.908 4.872 307.588 4.872ZM324.186 14.588H316.71V14.924C316.71 16.044 316.99 16.688 318.278 16.688C319.342 16.688 320.798 16.408 321.974 15.904L322.03 20.16C320.518 20.944 318.782 21.392 316.766 21.392C313.126 21.392 310.886 19.096 310.886 15.428C310.886 10.64 314.162 4.9 319.93 4.9C323.318 4.9 325.39 6.888 325.39 10.024C325.39 11.592 324.886 13.16 324.186 14.588ZM319.006 9.464C318.25 9.464 317.634 10.612 317.242 11.9L319.678 11.872C319.818 11.256 319.846 10.864 319.846 10.528C319.846 9.856 319.566 9.464 319.006 9.464ZM331.341 21.392C327.589 21.392 325.405 19.152 325.405 15.54C325.405 10.668 328.681 4.872 334.673 4.872C335.961 4.872 337.277 5.152 338.397 5.824L335.989 10.612C335.289 10.164 334.841 10.024 334.281 10.024C332.489 10.024 331.537 12.74 331.537 14.364C331.537 15.596 332.069 16.24 332.937 16.24C333.553 16.24 334.169 16.1 334.953 15.708L335.317 20.468C333.833 21.168 332.573 21.392 331.341 21.392ZM342.175 21.392C338.451 21.392 337.219 19.18 338.003 15.54L339.151 10.024H337.947L338.451 7.7L344.471 1.68H346.851L346.067 5.292H349.315L348.307 10.024H345.059L343.995 15.12C343.855 15.82 344.023 16.212 344.695 16.212C345.143 16.212 345.675 16.1 346.375 15.876L346.207 20.636C344.723 21.14 343.323 21.392 342.175 21.392ZM361.155 14.588H353.679V14.924C353.679 16.044 353.959 16.688 355.247 16.688C356.311 16.688 357.767 16.408 358.943 15.904L358.999 20.16C357.487 20.944 355.751 21.392 353.735 21.392C350.095 21.392 347.855 19.096 347.855 15.428C347.855 10.64 351.131 4.9 356.899 4.9C360.287 4.9 362.359 6.888 362.359 10.024C362.359 11.592 361.855 13.16 361.155 14.588ZM355.975 9.464C355.219 9.464 354.603 10.612 354.211 11.9L356.647 11.872C356.787 11.256 356.815 10.864 356.815 10.528C356.815 9.856 356.535 9.464 355.975 9.464ZM366.266 21.364C363.718 21.364 362.29 19.404 362.29 16.24C362.29 12.068 364.866 4.872 369.794 4.872C370.886 4.872 371.922 5.32 372.65 6.524L373.966 0.335999H379.902L375.506 21H369.57L369.85 19.712C368.618 20.916 367.414 21.364 366.266 21.364ZM369.262 16.184C370.074 16.184 370.83 14.952 371.222 13.272C371.53 11.816 371.474 10.052 370.578 10.052C369.206 10.052 368.422 13.804 368.422 14.952C368.422 15.736 368.702 16.184 369.262 16.184Z" fill="url(#paint1_linear_4156_632)"/>
<defs>
<linearGradient id="paint0_linear_4156_632" x1="2" y1="12" x2="179" y2="12" gradientUnits="userSpaceOnUse">
<stop offset="0.0769231" stop-color="white"/>
<stop offset="1" stop-color="#35D32F"/>
</linearGradient>
<linearGradient id="paint1_linear_4156_632" x1="188" y1="12" x2="379" y2="12" gradientUnits="userSpaceOnUse">
<stop offset="0.0769231" stop-color="white"/>
<stop offset="1" stop-color="#35D32F"/>
</linearGradient>
</defs>
</svg>
