<svg width="154" height="47" viewBox="0 0 154 47" fill="none" xmlns="http://www.w3.org/2000/svg">
<path d="M4.984 18.288C3.184 18.288 1.576 17.952 0.304 17.328L1.408 14.184C2.392 14.712 3.808 15.072 4.864 15.072C6.376 15.072 7.312 14.328 7.312 13.2C7.312 12.192 6.664 11.568 5.656 10.8C4.048 9.816 2.752 8.592 2.752 6.48C2.752 3.312 5.224 0.912 8.824 0.912C10.336 0.912 11.752 1.248 12.952 1.848L11.8 4.992C10.72 4.416 9.832 4.152 8.896 4.152C7.504 4.152 6.64 4.872 6.64 5.976C6.64 6.912 7.264 7.536 8.296 8.28C9.952 9.264 11.152 10.632 11.152 12.648C11.152 15.96 8.584 18.288 4.984 18.288ZM15.7178 18.288C13.1498 18.288 12.3818 16.68 12.9098 14.184L14.3018 7.728H13.0538L13.4138 6.096L14.9498 4.608L17.5658 1.944H18.9578L18.3338 4.776H21.1898L20.5658 7.728H17.7338L16.4138 13.824C16.2458 14.664 16.4378 15.168 17.1818 15.168C17.6138 15.168 18.1178 15.048 18.7418 14.832L18.6698 17.712C17.6138 18.096 16.5578 18.288 15.7178 18.288ZM29.1719 6.144L29.4599 4.776H32.8919L30.0839 18H26.6519L26.8919 16.848C25.8839 17.904 24.7559 18.288 23.7239 18.288C21.6839 18.288 20.4599 16.848 20.4599 14.304C20.4599 10.872 22.5479 4.512 26.5319 4.512C27.8759 4.512 28.6919 5.16 29.1719 6.144ZM25.3319 15.192C26.3879 15.192 27.3959 14.112 27.9239 11.976L28.1639 10.92C28.3799 9.432 28.2599 7.56 26.8919 7.56C25.1159 7.56 24.0359 12 24.0359 13.512C24.0359 14.664 24.5399 15.192 25.3319 15.192ZM38.0629 13.944L41.8789 4.776H45.5989L39.0709 18L37.0309 22.104H33.5509L35.4229 18.312H35.3509L34.3669 4.776H37.8469L38.0149 13.944H38.0629ZM4.984 42.288C3.184 42.288 1.576 41.952 0.304 41.328L1.408 38.184C2.392 38.712 3.808 39.072 4.864 39.072C6.376 39.072 7.312 38.328 7.312 37.2C7.312 36.192 6.664 35.568 5.656 34.8C4.048 33.816 2.752 32.592 2.752 30.48C2.752 27.312 5.224 24.912 8.824 24.912C10.336 24.912 11.752 25.248 12.952 25.848L11.8 28.992C10.72 28.416 9.832 28.152 8.896 28.152C7.504 28.152 6.64 28.872 6.64 29.976C6.64 30.912 7.264 31.536 8.296 32.28C9.952 33.264 11.152 34.632 11.152 36.648C11.152 39.96 8.584 42.288 4.984 42.288ZM15.7178 42.288C13.1498 42.288 12.3818 40.68 12.9098 38.184L14.3018 31.728H13.0538L13.4138 30.096L14.9498 28.608L17.5658 25.944H18.9578L18.3338 28.776H21.1898L20.5658 31.728H17.7338L16.4138 37.824C16.2458 38.664 16.4378 39.168 17.1818 39.168C17.6138 39.168 18.1178 39.048 18.7418 38.832L18.6698 41.712C17.6138 42.096 16.5578 42.288 15.7178 42.288ZM29.1719 30.144L29.4599 28.776H32.8919L30.0839 42H26.6519L26.8919 40.848C25.8839 41.904 24.7559 42.288 23.7239 42.288C21.6839 42.288 20.4599 40.848 20.4599 38.304C20.4599 34.872 22.5479 28.512 26.5319 28.512C27.8759 28.512 28.6919 29.16 29.1719 30.144ZM25.3319 39.192C26.3879 39.192 27.3959 38.112 27.9239 35.976L28.1639 34.92C28.3799 33.432 28.2599 31.56 26.8919 31.56C25.1159 31.56 24.0359 36 24.0359 37.512C24.0359 38.664 24.5399 39.192 25.3319 39.192ZM38.0629 37.944L41.8789 28.776H45.5989L39.0709 42L37.0309 46.104H33.5509L35.4229 42.312H35.3509L34.3669 28.776H37.8469L38.0149 37.944H38.0629Z" fill="white"/>
<path d="M58.7526 1.2C61.8246 1.2 63.7686 2.76 63.7686 5.64C63.7686 8.88 61.7046 13.224 56.4726 13.224H55.1766L54.1686 18H50.5926L54.1686 1.2H58.7526ZM55.8486 10.128H56.7606C59.0646 10.128 60.0966 7.656 60.0966 6.24C60.0966 5.04 59.4486 4.296 58.2966 4.296H57.0966L55.8486 10.128ZM67.7196 18.288C64.9356 18.288 63.4236 16.56 63.4236 13.608C63.4236 9.912 65.6796 4.488 70.3596 4.488C73.1436 4.488 74.6556 6.216 74.6556 9.144C74.6556 12.816 72.3996 18.288 67.7196 18.288ZM68.3436 15.168C70.0956 15.168 71.1516 10.992 71.1516 9.456C71.1516 8.256 70.5996 7.608 69.7356 7.608C68.0076 7.608 66.9276 11.664 66.9276 13.296C66.9276 14.496 67.4556 15.168 68.3436 15.168ZM85.348 13.584L88.804 4.776H92.404L86.476 18H82.972L83.068 10.488L80.068 18H76.54L76.204 4.776H79.684L79.468 13.584L82.876 4.776H85.588L85.348 13.584ZM100.919 12.48H94.6548C94.6308 12.768 94.6068 13.032 94.6068 13.248C94.6068 14.496 95.0868 15.264 96.3828 15.264C97.1268 15.264 98.2308 15 99.1428 14.568L99.2388 17.352C98.0868 17.976 96.8867 18.288 95.5908 18.288C92.8308 18.288 91.1028 16.512 91.1028 13.584C91.1028 9.744 93.6228 4.512 97.9668 4.512C100.415 4.512 101.879 6 101.879 8.472C101.879 9.936 101.447 11.256 100.919 12.48ZM97.4868 7.392C96.4788 7.392 95.6868 8.76 95.1828 10.248H98.4228C98.5668 9.6 98.6388 9.12 98.6388 8.736C98.6388 7.872 98.1828 7.392 97.4868 7.392ZM110.487 4.56C110.727 4.56 111.135 4.608 111.399 4.704L110.367 8.256C110.055 8.184 109.599 8.136 109.263 8.136C108.087 8.136 107.127 9.36 106.599 11.784L105.279 18H101.846L104.655 4.776H108.087L107.799 6.192C108.591 5.016 109.503 4.56 110.487 4.56ZM120.161 12.48H113.897C113.873 12.768 113.849 13.032 113.849 13.248C113.849 14.496 114.329 15.264 115.625 15.264C116.369 15.264 117.473 15 118.385 14.568L118.481 17.352C117.329 17.976 116.129 18.288 114.833 18.288C112.073 18.288 110.345 16.512 110.345 13.584C110.345 9.744 112.865 4.512 117.209 4.512C119.657 4.512 121.121 6 121.121 8.472C121.121 9.936 120.689 11.256 120.161 12.48ZM116.729 7.392C115.721 7.392 114.929 8.76 114.425 10.248H117.665C117.809 9.6 117.881 9.12 117.881 8.736C117.881 7.872 117.425 7.392 116.729 7.392ZM124.95 18.288C122.958 18.288 121.734 16.848 121.734 14.28C121.734 10.848 123.798 4.512 127.758 4.512C128.862 4.512 129.87 4.896 130.47 6.048L131.694 0.287999H135.126L131.358 18H127.926L128.19 16.824C127.158 17.904 126.03 18.288 124.95 18.288ZM126.63 15.192C127.83 15.192 128.766 13.8 129.27 11.712C129.774 9.24 129.438 7.584 128.166 7.584C126.366 7.584 125.31 12 125.31 13.536C125.31 14.688 125.814 15.192 126.63 15.192ZM56.9046 42.288C53.5446 42.288 51.4806 40.224 51.4806 36.696C51.4806 31.752 54.3846 24.936 60.2646 24.936C61.4646 24.936 62.7846 25.248 63.9366 25.944L62.3766 29.04C61.6326 28.512 60.8406 28.272 59.8806 28.272C56.8326 28.272 55.2486 33.624 55.2486 36.264C55.2486 38.136 56.1126 38.928 57.5286 38.928C58.5366 38.928 59.6166 38.664 60.5286 38.136L60.7926 41.28C59.7126 41.88 58.2246 42.288 56.9046 42.288ZM66.9931 42.288C64.2091 42.288 62.6971 40.56 62.6971 37.608C62.6971 33.912 64.9531 28.488 69.6331 28.488C72.4171 28.488 73.9291 30.216 73.9291 33.144C73.9291 36.816 71.6731 42.288 66.9931 42.288ZM67.6171 39.168C69.3691 39.168 70.4251 34.992 70.4251 33.456C70.4251 32.256 69.8731 31.608 69.0091 31.608C67.2811 31.608 66.2011 35.664 66.2011 37.296C66.2011 38.496 66.7291 39.168 67.6171 39.168ZM83.4079 28.512C85.6399 28.512 86.5759 30.024 85.9039 33.096L84.0319 42H80.5759L82.3999 33.432C82.6879 32.136 82.3039 31.632 81.4879 31.632C80.8159 31.632 79.9759 32.256 79.3999 33.288L77.5519 42H74.1199L76.9279 28.776H80.3599L80.0239 30.336C80.8879 29.256 82.0639 28.512 83.4079 28.512ZM95.572 28.512C97.804 28.512 98.74 30.024 98.068 33.096L96.196 42H92.74L94.564 33.432C94.852 32.136 94.468 31.632 93.652 31.632C92.98 31.632 92.14 32.256 91.564 33.288L89.716 42H86.284L89.092 28.776H92.524L92.188 30.336C93.052 29.256 94.228 28.512 95.572 28.512ZM108.864 36.48H102.6C102.576 36.768 102.552 37.032 102.552 37.248C102.552 38.496 103.032 39.264 104.328 39.264C105.072 39.264 106.176 39 107.088 38.568L107.184 41.352C106.032 41.976 104.832 42.288 103.536 42.288C100.776 42.288 99.0481 40.512 99.0481 37.584C99.0481 33.744 101.568 28.512 105.912 28.512C108.36 28.512 109.824 30 109.824 32.472C109.824 33.936 109.392 35.256 108.864 36.48ZM105.432 31.392C104.424 31.392 103.632 32.76 103.128 34.248H106.368C106.512 33.6 106.584 33.12 106.584 32.736C106.584 31.872 106.128 31.392 105.432 31.392ZM114.949 42.288C112.141 42.288 110.533 40.56 110.533 37.656C110.533 33.672 113.029 28.512 117.637 28.512C118.765 28.512 119.773 28.728 120.661 29.28L119.197 32.232C118.573 31.8 117.997 31.632 117.349 31.632C115.141 31.632 114.061 35.112 114.061 37.104C114.061 38.376 114.709 39.144 115.813 39.144C116.461 39.144 117.109 38.976 117.853 38.592L118.069 41.496C116.965 42.072 115.933 42.288 114.949 42.288ZM123.788 42.288C121.22 42.288 120.452 40.68 120.98 38.184L122.372 31.728H121.124L121.484 30.096L123.02 28.608L125.636 25.944H127.028L126.404 28.776H129.26L128.636 31.728H125.804L124.484 37.824C124.316 38.664 124.508 39.168 125.252 39.168C125.684 39.168 126.188 39.048 126.812 38.832L126.74 41.712C125.684 42.096 124.628 42.288 123.788 42.288ZM138.442 36.48H132.178C132.154 36.768 132.13 37.032 132.13 37.248C132.13 38.496 132.61 39.264 133.906 39.264C134.65 39.264 135.754 39 136.666 38.568L136.762 41.352C135.61 41.976 134.41 42.288 133.114 42.288C130.354 42.288 128.626 40.512 128.626 37.584C128.626 33.744 131.146 28.512 135.49 28.512C137.938 28.512 139.402 30 139.402 32.472C139.402 33.936 138.97 35.256 138.442 36.48ZM135.01 31.392C134.002 31.392 133.21 32.76 132.706 34.248H135.946C136.09 33.6 136.162 33.12 136.162 32.736C136.162 31.872 135.706 31.392 135.01 31.392ZM143.231 42.288C141.239 42.288 140.015 40.848 140.015 38.28C140.015 34.848 142.079 28.512 146.039 28.512C147.143 28.512 148.151 28.896 148.751 30.048L149.975 24.288H153.407L149.639 42H146.207L146.471 40.824C145.439 41.904 144.311 42.288 143.231 42.288ZM144.911 39.192C146.111 39.192 147.047 37.8 147.551 35.712C148.055 33.24 147.719 31.584 146.447 31.584C144.647 31.584 143.591 36 143.591 37.536C143.591 38.688 144.095 39.192 144.911 39.192Z" fill="url(#paint0_radial_4009_34)"/>
<defs>
<radialGradient id="paint0_radial_4009_34" cx="0" cy="0" r="1" gradientUnits="userSpaceOnUse" gradientTransform="translate(55 3.49999) rotate(11.0864) scale(75.4072 195.694)">
<stop stop-color="#97F392"/>
<stop offset="1" stop-color="#38D430"/>
</radialGradient>
</defs>
</svg>
