<svg width="270" height="80" viewBox="0 0 270 80" fill="none" xmlns="http://www.w3.org/2000/svg">
<path d="M10.7133 18.875H1.08252V61.0362H10.7133V18.875Z" fill="#38D430"/>
<path d="M5.89987 4.26514C4.24512 4.26514 2.83009 4.83735 1.70115 5.96629C0.572211 7.09523 0 8.47933 0 10.0799C0 11.6806 0.579943 13.1149 1.72435 14.2555C2.86875 15.3999 4.27219 15.9798 5.89987 15.9798C7.52755 15.9798 8.88846 15.3999 10.0329 14.2555C11.1773 13.1111 11.7572 11.7076 11.7572 10.0799C11.7572 8.45227 11.1734 7.09136 10.0251 5.96242C8.88074 4.83734 7.49275 4.26514 5.896 4.26514H5.89987Z" fill="#38D430"/>
<path d="M50.4155 28.0733L54.7766 18.8794H41.5154C34.533 18.8794 28.9038 20.8357 24.794 24.6903C20.661 28.5643 18.5693 33.8301 18.5693 40.3486C18.5693 46.867 20.4986 51.8893 24.3068 55.5428C28.1035 59.1887 33.3963 61.0368 40.0385 61.0368H49.1396L54.3242 51.8429H40.8195C36.7522 51.8429 33.6244 50.8222 31.5212 48.8117C29.4296 46.8129 28.3702 43.8475 28.3702 40.0006C28.3702 36.1537 29.476 33.0839 31.6565 31.0967C33.8564 29.094 37.1659 28.0771 41.4845 28.0694V27.0797L41.5154 28.0655H50.4155V28.0733Z" fill="white"/>
<path d="M80.6572 18.8749H77.8464L72.6425 24.0015V0H63.0117V61.0362H72.6425V28.0727H80.7422C83.5994 28.0727 85.6794 28.8769 87.1022 30.5355C88.5443 32.2134 89.275 34.769 89.275 38.1326V61.04H98.9058V38.1326C98.9058 31.9583 97.3284 27.1564 94.2238 23.8624C91.0999 20.5567 86.5338 18.8788 80.6533 18.8788L80.6572 18.8749Z" fill="white"/>
<path d="M127.756 18.8749H114.916L109.681 28.0688H127.408C129.6 28.0688 130.4 28.5212 130.682 28.7918C131.019 29.1166 131.421 29.9053 131.421 31.8191V52.0974H122.231C119.903 52.0974 118.179 51.6335 117.108 50.7249C116.068 49.8395 115.565 48.4941 115.565 46.6074C115.565 44.9642 116.068 43.6884 117.104 42.7141C118.14 41.7398 119.517 41.2565 121.303 41.2449H123.777L128.452 32.2637H121.798C117.093 32.2637 113.327 33.5589 110.597 36.1183C107.852 38.6932 106.46 42.2501 106.46 46.6886C106.46 51.127 107.825 54.8966 110.52 57.3555C113.188 59.7912 117.069 61.0284 122.057 61.0284H140.874V33.0331C140.874 27.9451 139.876 24.3959 137.827 22.1844C135.786 19.9845 132.395 18.8672 127.752 18.8672L127.756 18.8749Z" fill="white"/>
<path d="M185.865 24.6353C181.624 28.4822 179.475 33.7673 179.475 40.3476C179.475 46.5143 181.47 51.5597 185.409 55.3447C189.337 59.122 194.592 61.0358 201.033 61.0358H204.435L209.62 51.8419H201.64C197.46 51.8419 194.333 50.8676 192.345 48.9461C190.366 47.0362 189.364 44.0244 189.364 40.0035C189.364 35.9827 190.486 33.1951 192.794 31.1537C195.102 29.1124 198.531 28.0762 202.989 28.0762H211.089V60.4868C211.089 65.8067 210.223 68.0066 209.5 68.9152C208.498 70.1679 206.511 70.8058 203.596 70.8058H190.389L184.74 79.9997H200.205C207.47 79.9997 212.724 78.5846 215.825 75.7893C218.957 72.967 220.546 68.1535 220.546 61.4882V18.8823H203.163C195.898 18.8823 190.08 20.8193 185.865 24.6391V24.6353Z" fill="white"/>
<path d="M241.585 48.7803C239.428 46.766 238.334 43.7233 238.334 39.7372C238.334 36.0024 239.374 33.095 241.427 31.0962C243.487 29.0896 246.488 28.0728 250.35 28.0728H254.321L245.413 47.0327H255.608L269.244 18.875H253.35C245.374 18.875 239.173 20.7269 234.92 24.3766C230.621 28.065 228.444 33.4391 228.444 40.348C228.444 46.7273 230.497 51.8307 234.552 55.5191C238.577 59.1804 244.156 61.0401 251.135 61.0401H262.668L267.941 51.8462H251.398C247.067 51.8462 243.77 50.8178 241.589 48.7842L241.585 48.7803Z" fill="white"/>
<path d="M177.734 23.6696C176.636 22.1927 175.248 21.0135 173.613 20.163C171.97 19.3085 170.222 18.8794 168.417 18.8794H152.558V61.0406H162.188V28.4251H167.895C168.742 28.4444 171.587 28.7267 172.728 31.4872L173.571 33.5285L178.094 24.1529L177.738 23.6735L177.734 23.6696Z" fill="white"/>
</svg>
