<?xml version="1.0" encoding="UTF-8"?>
<svg version="1.1" xmlns="http://www.w3.org/2000/svg" width="372" height="111">
<path d="M0 0 C2.93218282 0.03592753 5.86440673 0.06798761 8.79663086 0.1003418 C10.25337289 0.11689774 11.71011427 0.13350992 13.16685486 0.15019226 C14.7858242 0.16865959 14.7858242 0.16865959 16.4375 0.1875 C16.50721046 8.78501812 16.56041754 17.38241685 16.59293652 25.98014832 C16.60854913 29.97303294 16.6297061 33.96572326 16.66381836 37.95849609 C16.69657005 41.81644585 16.71438609 45.67420947 16.72213173 49.5322876 C16.72764702 50.99939908 16.73841673 52.46650112 16.75469017 53.93353271 C16.85199939 63.07479409 16.82276735 70.85617022 11.1875 78.5 C5.00564355 84.54135972 -2.34141939 85.32035566 -10.61328125 85.28515625 C-11.27208786 85.2837413 -11.93089447 85.28232635 -12.60966492 85.28086853 C-14.69815762 85.275305 -16.78654011 85.26275947 -18.875 85.25 C-20.29752449 85.24498028 -21.72005066 85.2404182 -23.14257812 85.23632812 C-26.61592077 85.22534757 -30.08919961 85.20810835 -33.5625 85.1875 C-29.58405337 74.90804179 -29.58405337 74.90804179 -25.5625 71.1875 C-21.47815072 70.06906914 -17.58118365 70.24186355 -13.375 70.4375 C-11.21543088 70.50630043 -9.05506316 70.55416346 -6.89453125 70.578125 C-5.94296143 70.61969727 -4.9913916 70.66126953 -4.01098633 70.70410156 C-1.36458034 70.42873284 -1.36458034 70.42873284 0.06350708 67.98902893 C1.53405789 64.99062146 1.82957956 63.15856005 1.86987305 59.84643555 C1.88966721 58.8057341 1.90946136 57.76503265 1.92985535 56.6927948 C1.93624527 55.5811647 1.94263519 54.46953461 1.94921875 53.32421875 C1.96716995 52.17709915 1.98512115 51.02997955 2.00361633 49.84809875 C2.057724 46.19043636 2.09161751 42.53290453 2.125 38.875 C2.15817256 36.39255996 2.19266215 33.91013714 2.22851562 31.42773438 C2.3134509 25.34777331 2.38179906 19.26779537 2.4375 13.1875 C0.03469917 13.3222752 -2.36737634 13.46386588 -4.76953125 13.609375 C-5.44568481 13.64659668 -6.12183838 13.68381836 -6.81848145 13.72216797 C-13.33764536 14.12701102 -18.2828907 14.84943918 -23 19.6875 C-26.21155232 24.82598371 -26.42176865 30.38632851 -25.1015625 36.2265625 C-23.965294 39.3680107 -22.82811108 41.01411499 -20.03125 42.83984375 C-15.67072895 44.5339651 -11.82472307 44.74557192 -7.1875 44.875 C-6.35605469 44.90916016 -5.52460938 44.94332031 -4.66796875 44.97851562 C-2.63326649 45.06037146 -0.59790792 45.12562701 1.4375 45.1875 C0.1301925 48.62681834 -1.37286334 51.80050905 -3.1875 55 C-3.63351562 55.79019531 -4.07953125 56.58039063 -4.5390625 57.39453125 C-4.87679687 57.98621094 -5.21453125 58.57789063 -5.5625 59.1875 C-15.70290968 59.78140686 -24.90233489 58.42521343 -32.91015625 51.79296875 C-38.59052798 46.27374232 -40.76953462 39.93295915 -40.99438477 32.12280273 C-41.01855448 22.71658116 -39.99874737 16.18149607 -33.54296875 8.9140625 C-23.67195905 -0.66306424 -12.98447109 -0.21005984 0 0 Z " fill="#FFFFFF" transform="translate(288.5625,25.8125)"/>
<path d="M0 0 C4.62 0 9.24 0 14 0 C14.33 9.9 14.66 19.8 15 30 C16.32 28.68 17.64 27.36 19 26 C25.85178409 24.84897278 34.03722991 25.08160823 40 29 C45.57398359 33.89834922 49.39201678 39.7620152 50.26213074 47.25834656 C50.34423083 49.68824411 50.33811745 52.10041475 50.29296875 54.53125 C50.28872391 55.40777222 50.28447906 56.28429443 50.28010559 57.18737793 C50.2634513 59.95857823 50.22582509 62.72902336 50.1875 65.5 C50.17243599 67.39061442 50.1587506 69.28124036 50.14648438 71.171875 C50.11359139 75.78153639 50.06190255 80.39064062 50 85 C45.38 85 40.76 85 36 85 C35.98541748 83.91058105 35.97083496 82.82116211 35.95581055 81.69873047 C35.89763928 77.63932215 35.82040818 73.58045763 35.73754883 69.52148438 C35.7043878 67.76799373 35.67632858 66.01439862 35.65356445 64.26074219 C35.6198553 61.73327302 35.56753308 59.20675362 35.51171875 56.6796875 C35.50532883 55.90132538 35.4989389 55.12296326 35.49235535 54.3210144 C35.36452122 49.53993339 34.72389262 46.09454826 32 42 C26.65114784 39.00694743 26.65114784 39.00694743 14 39 C14 54.18 14 69.36 14 85 C9.38 85 4.76 85 0 85 C0 56.95 0 28.9 0 0 Z " fill="#FFFFFF" transform="translate(87,0)"/>
<path d="M0 0 C0.72680969 0.00141495 1.45361938 0.0028299 2.20245361 0.00428772 C4.51521994 0.00986833 6.82788812 0.02241721 9.140625 0.03515625 C10.71223818 0.04017376 12.28385289 0.04473623 13.85546875 0.04882812 C17.70055843 0.0598314 21.5455751 0.07708264 25.390625 0.09765625 C24.00105165 4.56716809 22.24970178 8.67941117 20.203125 12.88671875 C19.89995361 13.51242767 19.59678223 14.1381366 19.28442383 14.7828064 C18.3232487 16.7644415 17.3570055 18.74355532 16.390625 20.72265625 C15.74185623 22.05843291 15.09341569 23.39436903 14.4453125 24.73046875 C12.1148332 29.53022135 9.776812 34.32528224 7.390625 39.09765625 C2.440625 39.09765625 -2.509375 39.09765625 -7.609375 39.09765625 C-6.32927371 35.25735238 -5.16338697 31.93888122 -3.4453125 28.35546875 C-2.84589844 27.09863281 -2.84589844 27.09863281 -2.234375 25.81640625 C-1.821875 24.96046875 -1.409375 24.10453125 -0.984375 23.22265625 C-0.56414062 22.34351562 -0.14390625 21.464375 0.2890625 20.55859375 C1.3197942 18.40342747 2.35371926 16.24985703 3.390625 14.09765625 C2.14796875 14.07445312 0.9053125 14.05125 -0.375 14.02734375 C-1.07399414 14.01429199 -1.77298828 14.00124023 -2.49316406 13.98779297 C-7.36347456 14.24063558 -10.66667559 16.15495684 -14.046875 19.53515625 C-16.33302922 24.74758788 -16.36284292 29.49277752 -15.609375 35.09765625 C-13.27196775 40.22197215 -10.71438649 41.96231799 -5.609375 44.09765625 C-2.1370205 44.59501114 -2.1370205 44.59501114 1.5390625 44.609375 C2.19645416 44.6273262 2.85384583 44.6452774 3.53115845 44.66377258 C5.60925072 44.71750062 7.68711847 44.7516475 9.765625 44.78515625 C11.18362476 44.81836278 12.60159501 44.85285549 14.01953125 44.88867188 C17.4763468 44.97320276 20.93324138 45.04019193 24.390625 45.09765625 C23.43723531 47.05840109 22.4777496 49.01618277 21.515625 50.97265625 C20.98195313 52.06320313 20.44828125 53.15375 19.8984375 54.27734375 C18.390625 57.09765625 18.390625 57.09765625 16.390625 59.09765625 C13.12220479 59.55465013 9.8122839 59.42999004 6.515625 59.41015625 C5.56341064 59.4045166 4.61119629 59.39887695 3.63012695 59.39306641 C-7.05559472 59.2093473 -16.83785097 58.10358819 -24.609375 50.09765625 C-30.7657306 42.35103999 -32.65944609 33.86331737 -31.609375 24.09765625 C-29.95279443 17.09483837 -27.2873371 10.71701525 -21.609375 6.09765625 C-14.33992579 1.68077572 -8.46452635 -0.06230531 0 0 Z " fill="#FFFFFF" transform="translate(346.609375,25.90234375)"/>
<path d="M0 0 C1.18529297 -0.020625 2.37058594 -0.04125 3.59179688 -0.0625 C14.66202172 -0.11217011 14.66202172 -0.11217011 19.3125 3.25 C22.79731826 7.7708453 24.44124743 11.22721029 24.42602539 16.9050293 C24.42594986 17.84577805 24.42587433 18.78652679 24.42579651 19.75578308 C24.42063522 20.76836685 24.41547394 21.78095062 24.41015625 22.82421875 C24.4087413 23.86318802 24.40732635 24.90215729 24.40586853 25.97261047 C24.40026656 29.29426948 24.38771372 32.61586133 24.375 35.9375 C24.36998525 38.18815007 24.3654223 40.43880119 24.36132812 42.68945312 C24.35029649 48.20965837 24.33355643 53.72982439 24.3125 59.25 C20.06245329 59.32485856 15.81276866 59.37893167 11.56225586 59.41479492 C10.12013045 59.42976508 8.67804964 59.45014868 7.23608398 59.47631836 C-2.14113327 59.64208546 -10.32889339 59.51176054 -18.5625 54.5 C-23.15117577 49.64140213 -23.89897512 45.32201657 -24.125 38.8125 C-23.96339264 33.18209941 -23.41633478 28.63138086 -19.6875 24.25 C-13.35549866 19.07281038 -7.98011286 18.08867772 0.0625 18.1875 C0.75988281 18.19201172 1.45726562 18.19652344 2.17578125 18.20117188 C3.88805803 18.2128998 5.60029033 18.23083347 7.3125 18.25 C7.01472656 18.98863281 6.71695313 19.72726563 6.41015625 20.48828125 C5.76183122 22.11947626 5.13513429 23.76004128 4.55859375 25.41796875 C3.66579305 27.64781398 2.83675507 29.38373756 1.3125 31.25 C-1.05229732 32.16894085 -3.14411343 32.54543757 -5.6640625 32.80078125 C-8.08252061 33.09280691 -8.08252061 33.09280691 -9.6875 36.25 C-9.37019476 39.88939932 -9.37019476 39.88939932 -8.6875 43.25 C-4.33159432 44.87849969 -0.44815388 45.59118446 4.1875 45.875 C5.33992188 45.94976562 6.49234375 46.02453125 7.6796875 46.1015625 C8.54851562 46.15054688 9.41734375 46.19953125 10.3125 46.25 C10.19452982 41.85324012 10.07030274 37.45671601 9.94018555 33.06030273 C9.89678187 31.56360731 9.85511087 30.06686061 9.81518555 28.57006836 C9.75761384 26.42285688 9.69388284 24.27590479 9.62890625 22.12890625 C9.57391968 20.18866577 9.57391968 20.18866577 9.51782227 18.20922852 C9.6457722 15.36444992 9.6457722 15.36444992 8.3125 14.25 C6.2416528 14.0915735 4.16571971 13.99875578 2.08984375 13.93359375 C0.19975586 13.87075195 0.19975586 13.87075195 -1.72851562 13.80664062 C-3.06900736 13.76682404 -4.4095022 13.72711186 -5.75 13.6875 C-7.09441523 13.64431958 -8.4388166 13.60070544 -9.78320312 13.55664062 C-13.0845234 13.45014642 -16.38592236 13.3481354 -19.6875 13.25 C-18.71075896 11.26963514 -17.73104018 9.29073867 -16.75 7.3125 C-16.20472656 6.21035156 -15.65945312 5.10820312 -15.09765625 3.97265625 C-12.05399767 -1.90388122 -6.05295644 0.02590886 0 0 Z " fill="#FFFFFF" transform="translate(170.6875,25.75)"/>
<path d="M0 0 C1.25039063 0.00322266 2.50078125 0.00644531 3.7890625 0.00976562 C5.74199219 0.02233398 5.74199219 0.02233398 7.734375 0.03515625 C9.71050781 0.04192383 9.71050781 0.04192383 11.7265625 0.04882812 C14.97921241 0.06061309 18.23177084 0.07706614 21.484375 0.09765625 C18.59274824 8.97347476 18.59274824 8.97347476 15.484375 13.09765625 C12.41207849 13.73719552 10.28847342 13.93844396 7.234375 13.84765625 C5.70427032 13.87173839 4.17427231 13.90417192 2.64453125 13.9453125 C1.55809326 13.97069092 1.55809326 13.97069092 0.44970703 13.99658203 C-4.77287666 14.26517205 -8.24932545 15.86301419 -12.015625 19.53515625 C-14.65615542 25.806416 -14.42598943 32.21483556 -12.390625 38.66015625 C-9.9252182 41.86518508 -8.3444004 42.65375366 -4.515625 44.09765625 C-0.22872886 44.59997491 4.0464455 44.69996859 8.359375 44.78515625 C9.5246875 44.81931641 10.69 44.85347656 11.890625 44.88867188 C14.75511218 44.97084979 17.61930485 45.04010046 20.484375 45.09765625 C19.13802964 50.5820658 17.92358624 55.30774141 13.484375 59.09765625 C3.3360962 61.81280051 -8.74763929 59.20349471 -17.765625 54.34765625 C-25.19420945 48.26972352 -28.71753341 42.22505753 -29.796875 32.5859375 C-30.12689457 23.82666806 -27.94843619 15.7842187 -22.39453125 8.921875 C-15.81959737 2.53831133 -8.98220965 -0.04082823 0 0 Z " fill="#FFFFFF" transform="translate(54.515625,25.90234375)"/>
<path d="M0 0 C28 0 28 0 34 4 C34.66 4.66 35.32 5.32 36 6 C35.74782064 11.29576664 33.48703477 15.44236418 31 20 C30.01 19.67 29.02 19.34 28 19 C27.67 17.68 27.34 16.36 27 15 C23.04 14.67 19.08 14.34 15 14 C15 28.85 15 43.7 15 59 C10.05 59 5.1 59 0 59 C0 39.53 0 20.06 0 0 Z " fill="#FFFFFF" transform="translate(210,26)"/>
<path d="M0 0 C4.62 0 9.24 0 14 0 C14 19.47 14 38.94 14 59 C9.38 59 4.76 59 0 59 C0 39.53 0 20.06 0 0 Z " fill="#37D330" transform="translate(1,26)"/>
<path d="M0 0 C2.52301046 2.83838677 3.0149768 4.26613701 2.9375 8.0625 C1.85173536 11.46456252 0.84659713 12.86505215 -2 15 C-5.48964271 16.37749054 -6.72477566 16.11114829 -10.25 14.6875 C-13 13 -13 13 -14 11 C-14.58203713 3.78273959 -14.58203713 3.78273959 -12.1875 0.5625 C-7.70116933 -2.6420219 -4.97300836 -1.95368186 0 0 Z " fill="#38D330" transform="translate(14,7)"/>
</svg>
