<svg width="1440" height="6999" viewBox="0 0 1440 6999" fill="none" xmlns="http://www.w3.org/2000/svg">
<g clip-path="url(#clip0_405_338)">
<rect width="1440" height="6999" fill="white"/>
<path opacity="0.25" d="M887.5 -35.8948C988 -38.0439 1189.86 -9.01508 1066.66 214.038C912.647 492.855 1458.28 710.84 1370.27 492.856C1282.27 274.872 613.432 523.272 1154.66 893.338C1587.64 1189.39 736.638 1266.78 257.013 1268.47C89.1493 1279.46 -168.491 1389.66 143.856 1742.56C534.29 2183.69 1240.71 2371.29 1197.68 2640.02C1154.66 2908.76 -389.358 4077.56 143.856 4077.56C1317 4077.56 248.144 4753.44 709 4982.75C849.545 5052.69 1443.95 4934.29 1413 5378.06C1355.34 6204.87 -63.8002 5812.32 92.9998 6266.06C289 6833.24 1413 7045.21 1443 7240" stroke="#2BB32A" stroke-width="1.5" stroke-linecap="square"/>
<path d="M1354.99 561.029C1355.55 560.245 1356.79 560.635 1356.8 561.6L1356.94 572.708C1356.94 573.026 1357.1 573.323 1357.36 573.508L1366.38 579.99C1367.16 580.553 1366.77 581.79 1365.81 581.802L1354.7 581.941C1354.38 581.945 1354.09 582.099 1353.9 582.357L1347.42 591.38C1346.86 592.164 1345.62 591.774 1345.61 590.809L1345.47 579.7C1345.46 579.383 1345.31 579.086 1345.05 578.901L1336.03 572.419C1335.25 571.856 1335.63 570.619 1336.6 570.607L1347.71 570.468C1348.03 570.464 1348.32 570.309 1348.51 570.051L1354.99 561.029Z" fill="#2BB32A"/>
<path d="M100.364 5411.36C100.927 5410.57 102.164 5410.96 102.176 5411.93L102.382 5428.32C102.386 5428.64 102.54 5428.94 102.798 5429.12L116.114 5438.69C116.898 5439.25 116.508 5440.49 115.543 5440.5L99.1488 5440.71C98.8312 5440.71 98.5344 5440.86 98.3491 5441.12L88.7834 5454.44C88.2203 5455.22 86.9834 5454.83 86.9713 5453.87L86.7661 5437.47C86.7621 5437.15 86.6075 5436.86 86.3496 5436.67L73.034 5427.11C72.2502 5426.54 72.6399 5425.31 73.6049 5425.3L89.999 5425.09C90.3166 5425.09 90.6133 5424.93 90.7986 5424.67L100.364 5411.36Z" fill="#2BB32A"/>
<path d="M807.171 5919.26C806.909 5918.33 807.985 5917.6 808.747 5918.2L817.52 5925.01C817.771 5925.21 818.099 5925.27 818.405 5925.19L829.098 5922.17C830.026 5921.91 830.751 5922.99 830.159 5923.75L823.343 5932.52C823.148 5932.77 823.084 5933.1 823.17 5933.4L826.184 5944.1C826.446 5945.03 825.37 5945.75 824.608 5945.16L815.836 5938.34C815.585 5938.15 815.256 5938.08 814.951 5938.17L804.258 5941.18C803.329 5941.45 802.605 5940.37 803.197 5939.61L810.013 5930.84C810.208 5930.58 810.272 5930.26 810.186 5929.95L807.171 5919.26Z" fill="#2BB32A"/>
<path d="M385.484 6219.38C385.887 6218.5 387.175 6218.65 387.372 6219.59L389.638 6230.47C389.703 6230.78 389.911 6231.04 390.2 6231.18L400.298 6235.81C401.175 6236.21 401.029 6237.5 400.084 6237.7L389.209 6239.96C388.898 6240.03 388.636 6240.23 388.504 6240.52L383.871 6250.62C383.469 6251.5 382.18 6251.35 381.983 6250.41L379.718 6239.53C379.653 6239.22 379.444 6238.96 379.156 6238.83L369.058 6234.2C368.181 6233.79 368.326 6232.5 369.271 6232.31L380.147 6230.04C380.458 6229.98 380.72 6229.77 380.852 6229.48L385.484 6219.38Z" fill="#2BB32A"/>
<path d="M141.748 903.209C141.424 902.3 142.448 901.505 143.249 902.045L149.854 906.497C150.117 906.675 150.449 906.716 150.748 906.61L158.252 903.937C159.161 903.613 159.956 904.638 159.417 905.438L154.964 912.043C154.787 912.306 154.745 912.638 154.851 912.938L157.524 920.441C157.848 921.35 156.824 922.146 156.023 921.606L149.418 917.154C149.155 916.976 148.823 916.934 148.524 917.041L141.02 919.714C140.111 920.038 139.316 919.013 139.855 918.213L144.308 911.608C144.485 911.344 144.527 911.012 144.42 910.713L141.748 903.209Z" fill="#2BB32A"/>
<path d="M234.541 1801.82C235.058 1801 236.316 1801.32 236.383 1802.28L237.538 1818.86C237.56 1819.18 237.731 1819.46 237.999 1819.63L252.024 1828.54C252.838 1829.06 252.52 1830.32 251.557 1830.38L234.983 1831.54C234.666 1831.56 234.379 1831.73 234.208 1832L225.3 1846.02C224.783 1846.84 223.526 1846.52 223.458 1845.56L222.303 1828.98C222.281 1828.67 222.11 1828.38 221.842 1828.21L207.817 1819.3C207.003 1818.78 207.321 1817.53 208.284 1817.46L224.858 1816.3C225.175 1816.28 225.463 1816.11 225.633 1815.84L234.541 1801.82Z" fill="#2BB32A"/>
<path d="M1190.17 2516.54C1191.14 2516.52 1191.57 2517.74 1190.81 2518.33L1180.01 2526.7C1179.75 2526.89 1179.61 2527.2 1179.62 2527.51L1179.94 2541.17C1179.96 2542.14 1178.74 2542.57 1178.15 2541.81L1169.78 2531.01C1169.59 2530.75 1169.29 2530.61 1168.97 2530.62L1155.31 2530.94C1154.35 2530.96 1153.91 2529.74 1154.67 2529.15L1165.48 2520.78C1165.73 2520.59 1165.87 2520.29 1165.86 2519.97L1165.54 2506.31C1165.52 2505.35 1166.74 2504.91 1167.33 2505.67L1175.7 2516.48C1175.89 2516.73 1176.2 2516.87 1176.51 2516.86L1190.17 2516.54Z" fill="#2BB32A"/>
<path d="M191.879 3042.75C192.844 3042.73 193.278 3043.95 192.515 3044.55L188.85 3047.38C188.599 3047.58 188.456 3047.88 188.463 3048.2L188.572 3052.83C188.595 3053.8 187.373 3054.23 186.782 3053.47L183.944 3049.8C183.749 3049.55 183.447 3049.41 183.13 3049.42L178.496 3049.52C177.531 3049.55 177.097 3048.32 177.86 3047.73L181.524 3044.9C181.775 3044.7 181.919 3044.4 181.912 3044.08L181.803 3039.45C181.78 3038.48 183.002 3038.05 183.593 3038.81L186.431 3042.48C186.626 3042.73 186.928 3042.87 187.245 3042.86L191.879 3042.75Z" fill="#2BB32A"/>
<path d="M317.697 3604.07C318.662 3604.04 319.096 3605.27 318.333 3605.86L308.512 3613.46C308.261 3613.66 308.117 3613.96 308.124 3614.28L308.417 3626.7C308.44 3627.66 307.217 3628.1 306.626 3627.33L299.02 3617.51C298.825 3617.26 298.523 3617.12 298.206 3617.12L285.786 3617.42C284.822 3617.44 284.388 3616.22 285.151 3615.63L294.972 3608.02C295.223 3607.83 295.367 3607.52 295.359 3607.21L295.067 3594.79C295.044 3593.82 296.266 3593.39 296.857 3594.15L304.464 3603.97C304.658 3604.22 304.961 3604.37 305.278 3604.36L317.697 3604.07Z" fill="#2BB32A"/>
<path d="M1262.23 4370.28C1262.98 4370.88 1262.53 4372.1 1261.56 4372.05L1249.15 4371.52C1248.83 4371.5 1248.53 4371.64 1248.33 4371.89L1240.53 4381.56C1239.92 4382.31 1238.71 4381.85 1238.75 4380.89L1239.29 4368.47C1239.3 4368.16 1239.17 4367.85 1238.92 4367.65L1229.25 4359.85C1228.5 4359.25 1228.96 4358.03 1229.92 4358.08L1242.33 4358.61C1242.65 4358.63 1242.95 4358.49 1243.15 4358.24L1250.95 4348.57C1251.56 4347.82 1252.77 4348.28 1252.73 4349.24L1252.19 4361.66C1252.18 4361.97 1252.32 4362.28 1252.56 4362.48L1262.23 4370.28Z" fill="#2BB32A"/>
<path d="M233.097 4587.54C233.849 4588.14 233.39 4589.36 232.426 4589.32L223.86 4588.94C223.543 4588.93 223.238 4589.07 223.038 4589.32L217.655 4595.99C217.049 4596.74 215.836 4596.28 215.877 4595.32L216.249 4586.75C216.262 4586.43 216.125 4586.13 215.877 4585.93L209.204 4580.55C208.452 4579.94 208.911 4578.73 209.875 4578.77L218.441 4579.14C218.758 4579.15 219.063 4579.02 219.263 4578.77L224.646 4572.1C225.252 4571.34 226.466 4571.8 226.424 4572.77L226.052 4581.33C226.039 4581.65 226.176 4581.95 226.424 4582.15L233.097 4587.54Z" fill="#2BB32A"/>
<path d="M1348.67 5147.21C1349.42 5147.82 1348.96 5149.03 1347.99 5148.99L1339.43 5148.62C1339.11 5148.61 1338.81 5148.74 1338.61 5148.99L1333.22 5155.67C1332.62 5156.42 1331.4 5155.96 1331.45 5154.99L1331.82 5146.43C1331.83 5146.11 1331.69 5145.81 1331.45 5145.61L1324.77 5140.22C1324.02 5139.62 1324.48 5138.4 1325.44 5138.44L1334.01 5138.82C1334.33 5138.83 1334.63 5138.69 1334.83 5138.45L1340.21 5131.77C1340.82 5131.02 1342.03 5131.48 1341.99 5132.44L1341.62 5141.01C1341.61 5141.33 1341.74 5141.63 1341.99 5141.83L1348.67 5147.21Z" fill="#2BB32A"/>
<path d="M505.57 2444.33C506.535 2444.31 506.969 2445.53 506.206 2446.12L501.218 2449.99C500.967 2450.18 500.823 2450.48 500.83 2450.8L500.979 2457.11C501.001 2458.07 499.779 2458.51 499.188 2457.74L495.325 2452.76C495.131 2452.5 494.828 2452.36 494.511 2452.37L488.203 2452.52C487.239 2452.54 486.805 2451.32 487.568 2450.73L492.556 2446.86C492.807 2446.67 492.95 2446.37 492.943 2446.05L492.794 2439.74C492.772 2438.78 493.994 2438.34 494.585 2439.1L498.448 2444.09C498.643 2444.34 498.945 2444.49 499.262 2444.48L505.57 2444.33Z" fill="#2BB32A"/>
<path d="M937.162 1448.66C937.804 1447.94 938.993 1448.45 938.904 1449.41L938.168 1457.35C938.139 1457.66 938.261 1457.97 938.498 1458.18L944.445 1463.49C945.165 1464.13 944.648 1465.32 943.687 1465.23L935.755 1464.49C935.439 1464.46 935.128 1464.58 934.917 1464.82L929.616 1470.77C928.974 1471.49 927.785 1470.97 927.874 1470.01L928.61 1462.08C928.639 1461.76 928.517 1461.45 928.28 1461.24L922.333 1455.94C921.613 1455.3 922.13 1454.11 923.091 1454.2L931.023 1454.93C931.339 1454.96 931.65 1454.84 931.862 1454.6L937.162 1448.66Z" fill="#2BB32A"/>
<path d="M376.501 475.097C376.177 474.187 377.201 473.392 378.002 473.932L391.382 482.951C391.645 483.129 391.977 483.171 392.277 483.064L407.478 477.65C408.387 477.326 409.182 478.35 408.642 479.151L399.623 492.531C399.445 492.794 399.403 493.126 399.51 493.425L404.925 508.626C405.248 509.536 404.224 510.331 403.424 509.791L390.043 500.772C389.78 500.594 389.448 500.552 389.149 500.659L373.948 506.074C373.039 506.397 372.243 505.373 372.783 504.573L381.803 491.192C381.98 490.929 382.022 490.597 381.915 490.298L376.501 475.097Z" fill="#2BB32A"/>
<g filter="url(#filter0_f_405_338)">
<circle cx="1261" cy="3260" r="246" fill="#2BB32A" fill-opacity="0.5"/>
</g>
<g filter="url(#filter1_f_405_338)">
<circle cx="1328" cy="810" r="246" fill="#2BB32A" fill-opacity="0.5"/>
</g>
<g filter="url(#filter2_f_405_338)">
<circle cx="193" cy="1916" r="246" fill="#2BB32A" fill-opacity="0.5"/>
</g>
<g filter="url(#filter3_f_405_338)">
<circle cx="1320" cy="4793" r="193" fill="#2BB32A" fill-opacity="0.5"/>
</g>
<g filter="url(#filter4_f_405_338)">
<circle cx="145" cy="5734" r="193" fill="#2BB32A" fill-opacity="0.5"/>
</g>
<g filter="url(#filter5_f_405_338)">
<circle cx="158" cy="5446" r="193" fill="#2BB32A" fill-opacity="0.5"/>
</g>
<g filter="url(#filter6_f_405_338)">
<circle cx="1330" cy="914" r="193" fill="#2BB32A" fill-opacity="0.5"/>
</g>
</g>
<defs>
<filter id="filter0_f_405_338" x="215" y="2214" width="2092" height="2092" filterUnits="userSpaceOnUse" color-interpolation-filters="sRGB">
<feFlood flood-opacity="0" result="BackgroundImageFix"/>
<feBlend mode="normal" in="SourceGraphic" in2="BackgroundImageFix" result="shape"/>
<feGaussianBlur stdDeviation="400" result="effect1_foregroundBlur_405_338"/>
</filter>
<filter id="filter1_f_405_338" x="282" y="-236" width="2092" height="2092" filterUnits="userSpaceOnUse" color-interpolation-filters="sRGB">
<feFlood flood-opacity="0" result="BackgroundImageFix"/>
<feBlend mode="normal" in="SourceGraphic" in2="BackgroundImageFix" result="shape"/>
<feGaussianBlur stdDeviation="400" result="effect1_foregroundBlur_405_338"/>
</filter>
<filter id="filter2_f_405_338" x="-853" y="870" width="2092" height="2092" filterUnits="userSpaceOnUse" color-interpolation-filters="sRGB">
<feFlood flood-opacity="0" result="BackgroundImageFix"/>
<feBlend mode="normal" in="SourceGraphic" in2="BackgroundImageFix" result="shape"/>
<feGaussianBlur stdDeviation="400" result="effect1_foregroundBlur_405_338"/>
</filter>
<filter id="filter3_f_405_338" x="327" y="3800" width="1986" height="1986" filterUnits="userSpaceOnUse" color-interpolation-filters="sRGB">
<feFlood flood-opacity="0" result="BackgroundImageFix"/>
<feBlend mode="normal" in="SourceGraphic" in2="BackgroundImageFix" result="shape"/>
<feGaussianBlur stdDeviation="400" result="effect1_foregroundBlur_405_338"/>
</filter>
<filter id="filter4_f_405_338" x="-848" y="4741" width="1986" height="1986" filterUnits="userSpaceOnUse" color-interpolation-filters="sRGB">
<feFlood flood-opacity="0" result="BackgroundImageFix"/>
<feBlend mode="normal" in="SourceGraphic" in2="BackgroundImageFix" result="shape"/>
<feGaussianBlur stdDeviation="400" result="effect1_foregroundBlur_405_338"/>
</filter>
<filter id="filter5_f_405_338" x="-835" y="4453" width="1986" height="1986" filterUnits="userSpaceOnUse" color-interpolation-filters="sRGB">
<feFlood flood-opacity="0" result="BackgroundImageFix"/>
<feBlend mode="normal" in="SourceGraphic" in2="BackgroundImageFix" result="shape"/>
<feGaussianBlur stdDeviation="400" result="effect1_foregroundBlur_405_338"/>
</filter>
<filter id="filter6_f_405_338" x="337" y="-79" width="1986" height="1986" filterUnits="userSpaceOnUse" color-interpolation-filters="sRGB">
<feFlood flood-opacity="0" result="BackgroundImageFix"/>
<feBlend mode="normal" in="SourceGraphic" in2="BackgroundImageFix" result="shape"/>
<feGaussianBlur stdDeviation="400" result="effect1_foregroundBlur_405_338"/>
</filter>
<clipPath id="clip0_405_338">
<rect width="1440" height="6999" fill="white"/>
</clipPath>
</defs>
</svg>
